<?xml version="1.0" encoding="UTF-8" standalone="no"?>
<!-- Created with Inkscape (http://www.inkscape.org/) -->

<svg
   xmlns:dc="http://purl.org/dc/elements/1.1/"
   xmlns:cc="http://creativecommons.org/ns#"
   xmlns:rdf="http://www.w3.org/1999/02/22-rdf-syntax-ns#"
   xmlns:svg="http://www.w3.org/2000/svg"
   xmlns="http://www.w3.org/2000/svg"
   xmlns:xlink="http://www.w3.org/1999/xlink"
   xmlns:sodipodi="http://sodipodi.sourceforge.net/DTD/sodipodi-0.dtd"
   xmlns:inkscape="http://www.inkscape.org/namespaces/inkscape"
   sodipodi:docname="texttemplate.svg"
   inkscape:version="0.91 r13725"
   version="1.1"
   id="svg2"
   height="0.81690246in"
   width="3.6964662in"
   inkscape:export-filename="C:\Users\Bryan\Documents\GitHub\LiT-Code\doc\Team4324\Notebook Graphics&amp;Docs\Key Features\Footer corner.png"
   inkscape:export-xdpi="90"
   inkscape:export-ydpi="90">
  <sodipodi:namedview
     id="base"
     pagecolor="#ffffff"
     bordercolor="#666666"
     borderopacity="1.0"
     inkscape:pageopacity="0.0"
     inkscape:pageshadow="2"
     inkscape:zoom="1.0000001"
     inkscape:cx="-62.891473"
     inkscape:cy="36.209193"
     inkscape:document-units="px"
     inkscape:current-layer="layer1"
     showgrid="false"
     inkscape:snap-bbox="true"
     inkscape:snap-bbox-midpoints="true"
     inkscape:snap-object-midpoints="true"
     inkscape:object-nodes="true"
     inkscape:snap-smooth-nodes="true"
     inkscape:snap-midpoints="false"
     inkscape:object-paths="false"
     inkscape:snap-intersection-paths="true"
     inkscape:window-width="1920"
     inkscape:window-height="1017"
     inkscape:window-x="-8"
     inkscape:window-y="-8"
     inkscape:window-maximized="1"
     inkscape:snap-page="true"
     inkscape:snap-nodes="true"
     inkscape:snap-center="true"
     inkscape:snap-global="false"
     fit-margin-top="0"
     fit-margin-left="0"
     fit-margin-right="0"
     fit-margin-bottom="0"
     units="in" />
  <defs
     id="defs4">
    <linearGradient
       id="linearGradient3992">
      <stop
         id="stop3994"
         offset="0"
         style="stop-color:#ffffe1;stop-opacity:0.30357143;" />
      <stop
         id="stop3996"
         offset="1"
         style="stop-color:#3c3c3c;stop-opacity:0;" />
    </linearGradient>
    <linearGradient
       id="linearGradient3966">
      <stop
         id="stop3968"
         offset="0"
         style="stop-color:#ffffdb;stop-opacity:0.32142857;" />
      <stop
         id="stop3970"
         offset="1"
         style="stop-color:#3c3c3c;stop-opacity:0;" />
    </linearGradient>
    <linearGradient
       id="linearGradient7304">
      <stop
         id="stop7306"
         offset="0"
         style="stop-color:#0000ff;stop-opacity:1;" />
      <stop
         id="stop7308"
         offset="1"
         style="stop-color:#0000ff;stop-opacity:0;" />
    </linearGradient>
    <linearGradient
       id="linearGradient7257"
       inkscape:collect="always">
      <stop
         id="stop7259"
         offset="0"
         style="stop-color:#0000ff;stop-opacity:1;" />
      <stop
         id="stop7261"
         offset="1"
         style="stop-color:#0000ff;stop-opacity:0;" />
    </linearGradient>
    <linearGradient
       gradientUnits="userSpaceOnUse"
       y2="1031.3466"
       x2="23.970215"
       y1="1031.3466"
       x1="8.0327139"
       id="linearGradient7265"
       xlink:href="#linearGradient7257"
       inkscape:collect="always" />
    <linearGradient
       gradientUnits="userSpaceOnUse"
       y2="1031.3466"
       x2="23.970215"
       y1="1031.3466"
       x1="8.0327139"
       id="linearGradient7265-8"
       xlink:href="#linearGradient7257-1"
       inkscape:collect="always" />
    <linearGradient
       id="linearGradient7257-1"
       inkscape:collect="always">
      <stop
         id="stop7259-2"
         offset="0"
         style="stop-color:#0000ff;stop-opacity:1;" />
      <stop
         id="stop7261-1"
         offset="1"
         style="stop-color:#0000ff;stop-opacity:0;" />
    </linearGradient>
    <linearGradient
       inkscape:collect="always"
       xlink:href="#linearGradient7257-1"
       id="linearGradient7282"
       gradientUnits="userSpaceOnUse"
       x1="8.0327139"
       y1="1031.3466"
       x2="23.970215"
       y2="1031.3466"
       gradientTransform="matrix(1,0,0,-1,0,2072.7245)" />
    <linearGradient
       gradientUnits="userSpaceOnUse"
       y2="1043.9872"
       x2="24.038048"
       y1="1043.9872"
       x1="7.9648819"
       id="linearGradient7310"
       xlink:href="#linearGradient7304"
       inkscape:collect="always" />
    <linearGradient
       gradientTransform="translate(0,2.8e-5)"
       y2="1043.9872"
       x2="15.676388"
       y1="1043.9872"
       x1="-0.41043764"
       gradientUnits="userSpaceOnUse"
       id="linearGradient7324-1"
       xlink:href="#linearGradient7304-7"
       inkscape:collect="always" />
    <linearGradient
       id="linearGradient7304-7">
      <stop
         id="stop7306-4"
         offset="0"
         style="stop-color:#ffffff;stop-opacity:1;" />
      <stop
         id="stop7308-0"
         offset="1"
         style="stop-color:#0000ff;stop-opacity:0;" />
    </linearGradient>
    <linearGradient
       gradientTransform="translate(24.176508,2.720587)"
       gradientUnits="userSpaceOnUse"
       y2="1036.2379"
       x2="-7.619369"
       y1="1036.2379"
       x1="-17.784523"
       id="linearGradient3866-8"
       xlink:href="#linearGradient3860-8"
       inkscape:collect="always" />
    <linearGradient
       id="linearGradient3860-8"
       inkscape:collect="always">
      <stop
         id="stop3862-2"
         offset="0"
         style="stop-color:#969696;stop-opacity:1;" />
      <stop
         id="stop3864-4"
         offset="1"
         style="stop-color:#969696;stop-opacity:0;" />
    </linearGradient>
    <linearGradient
       id="linearGradient3992-1">
      <stop
         id="stop3994-5"
         offset="0"
         style="stop-color:#ffffe1;stop-opacity:0.30357143;" />
      <stop
         id="stop3996-2"
         offset="1"
         style="stop-color:#3c3c3c;stop-opacity:0;" />
    </linearGradient>
    <linearGradient
       id="linearGradient3966-6">
      <stop
         id="stop3968-1"
         offset="0"
         style="stop-color:#ffffdb;stop-opacity:0.32142857;" />
      <stop
         id="stop3970-4"
         offset="1"
         style="stop-color:#3c3c3c;stop-opacity:0;" />
    </linearGradient>
    <clipPath
       id="clipPath27231"
       clipPathUnits="userSpaceOnUse">
      <path
         inkscape:connector-curvature="0"
         id="path27233"
         d="m -28.626078,1072.6247 c -2.411571,3.8187 5.823322,12.2341 5.823322,12.2341 0,0 -8.234893,8.4154 -5.823322,12.2341 1.264245,2.0019 4.183676,3.0029 7.103108,3.0029 2.919432,0 5.838864,-1.001 7.103107,-3.0029 2.411572,-3.8187 -5.823321,-12.2341 -5.823321,-12.2341 0,0 8.234893,-8.4154 5.823321,-12.2341 -1.264243,-2.0019 -4.183675,-3.0029 -7.103107,-3.0029 -2.919432,0 -5.838863,1.001 -7.103108,3.0029 z"
         style="color:#000000;display:inline;overflow:visible;visibility:visible;fill:#ffff74;fill-opacity:1;stroke:none;stroke-width:0.2;marker:none;enable-background:accumulate" />
    </clipPath>
    <clipPath
       id="clipPath27231-6"
       clipPathUnits="userSpaceOnUse">
      <path
         inkscape:connector-curvature="0"
         id="path27233-5"
         d="m -28.626078,1072.6247 c -2.411571,3.8187 5.823322,12.2341 5.823322,12.2341 0,0 -8.234893,8.4154 -5.823322,12.2341 1.264245,2.0019 4.183676,3.0029 7.103108,3.0029 2.919432,0 5.838864,-1.001 7.103107,-3.0029 2.411572,-3.8187 -5.823321,-12.2341 -5.823321,-12.2341 0,0 8.234893,-8.4154 5.823321,-12.2341 -1.264243,-2.0019 -4.183675,-3.0029 -7.103107,-3.0029 -2.919432,0 -5.838863,1.001 -7.103108,3.0029 z"
         style="color:#000000;display:inline;overflow:visible;visibility:visible;fill:#ffff74;fill-opacity:1;stroke:none;stroke-width:0.2;marker:none;enable-background:accumulate" />
    </clipPath>
    <clipPath
       clipPathUnits="userSpaceOnUse"
       id="clipPath9967">
      <path
         id="path9969"
         style="color:#000000;display:inline;overflow:visible;visibility:visible;fill:#000000;fill-opacity:0.41269842;stroke:none;stroke-width:0.2;marker:none;enable-background:accumulate"
         d="m 63.916973,1088.6518 c -4.166825,0 -7.5625,-2.079 -7.5625,-4.625 -0.07182,4.1679 6.28125,10.625 6.28125,10.625 0,0 -8.255322,8.4313 -5.84375,12.25 0.9375,1.296 2.958176,3 7.125,3 4.166825,0 6.09375,-1.6727 7.09375,-3 2.411572,-3.8187 -5.8125,-12.25 -5.8125,-12.25 0,0 6.321822,-6.4571 6.25,-10.625 0,2.546 -3.364426,4.625 -7.53125,4.625 z"
         inkscape:connector-curvature="0"
         sodipodi:nodetypes="scccscccs" />
    </clipPath>
    <linearGradient
       y2="1036.2379"
       x2="-7.619369"
       y1="1036.2379"
       x1="-17.784523"
       gradientTransform="matrix(-1,0,0,1,36.542242,5.1085772)"
       gradientUnits="userSpaceOnUse"
       id="linearGradient3922-6-3"
       xlink:href="#linearGradient3860-8-8-3"
       inkscape:collect="always" />
    <linearGradient
       id="linearGradient3860-8-8-3"
       inkscape:collect="always">
      <stop
         id="stop3862-2-5-4"
         offset="0"
         style="stop-color:#969696;stop-opacity:1;" />
      <stop
         id="stop3864-4-7-1"
         offset="1"
         style="stop-color:#969696;stop-opacity:0;" />
    </linearGradient>
    <clipPath
       clipPathUnits="userSpaceOnUse"
       id="clipPath9967-7">
      <path
         id="path9969-4"
         style="color:#000000;display:inline;overflow:visible;visibility:visible;fill:#000000;fill-opacity:0.41269842;stroke:none;stroke-width:0.2;marker:none;enable-background:accumulate"
         d="m 63.916973,1088.6518 c -4.166825,0 -7.5625,-2.079 -7.5625,-4.625 -0.07182,4.1679 6.28125,10.625 6.28125,10.625 0,0 -8.255322,8.4313 -5.84375,12.25 0.9375,1.296 2.958176,3 7.125,3 4.166825,0 6.09375,-1.6727 7.09375,-3 2.411572,-3.8187 -5.8125,-12.25 -5.8125,-12.25 0,0 6.321822,-6.4571 6.25,-10.625 0,2.546 -3.364426,4.625 -7.53125,4.625 z"
         inkscape:connector-curvature="0"
         sodipodi:nodetypes="scccscccs" />
    </clipPath>
    <linearGradient
       id="linearGradient3992-9">
      <stop
         id="stop3994-3"
         offset="0"
         style="stop-color:#ffffe1;stop-opacity:0.30357143;" />
      <stop
         id="stop3996-1"
         offset="1"
         style="stop-color:#3c3c3c;stop-opacity:0;" />
    </linearGradient>
    <linearGradient
       id="linearGradient3966-8">
      <stop
         id="stop3968-6"
         offset="0"
         style="stop-color:#ffffdb;stop-opacity:0.32142857;" />
      <stop
         id="stop3970-5"
         offset="1"
         style="stop-color:#3c3c3c;stop-opacity:0;" />
    </linearGradient>
    <linearGradient
       y2="1036.2379"
       x2="-7.619369"
       y1="1036.2379"
       x1="-17.784523"
       gradientTransform="matrix(-1,0,0,1,36.542242,5.1085772)"
       gradientUnits="userSpaceOnUse"
       id="linearGradient3922-6-1"
       xlink:href="#linearGradient3860-8-8-4"
       inkscape:collect="always" />
    <linearGradient
       id="linearGradient3860-8-8-4"
       inkscape:collect="always">
      <stop
         id="stop3862-2-5-6"
         offset="0"
         style="stop-color:#969696;stop-opacity:1;" />
      <stop
         id="stop3864-4-7-0"
         offset="1"
         style="stop-color:#969696;stop-opacity:0;" />
    </linearGradient>
    <clipPath
       clipPathUnits="userSpaceOnUse"
       id="clipPath10383">
      <circle
         style="color:#000000;display:inline;overflow:visible;visibility:visible;fill:#000000;fill-opacity:0.64021164;fill-rule:nonzero;stroke:none;stroke-width:0.30000001;marker:none;enable-background:accumulate"
         id="path10385"
         transform="matrix(0.97457627,0,0,0.97457627,-25.983178,968.47533)"
         cx="528.56232"
         cy="-267.81326"
         r="104.29825" />
    </clipPath>
    <clipPath
       clipPathUnits="userSpaceOnUse"
       id="clipPath9967-0">
      <path
         id="path9969-5"
         style="color:#000000;display:inline;overflow:visible;visibility:visible;fill:#000000;fill-opacity:0.41269842;stroke:none;stroke-width:0.2;marker:none;enable-background:accumulate"
         d="m 63.916973,1088.6518 c -4.166825,0 -7.5625,-2.079 -7.5625,-4.625 -0.07182,4.1679 6.28125,10.625 6.28125,10.625 0,0 -8.255322,8.4313 -5.84375,12.25 0.9375,1.296 2.958176,3 7.125,3 4.166825,0 6.09375,-1.6727 7.09375,-3 2.411572,-3.8187 -5.8125,-12.25 -5.8125,-12.25 0,0 6.321822,-6.4571 6.25,-10.625 0,2.546 -3.364426,4.625 -7.53125,4.625 z"
         inkscape:connector-curvature="0"
         sodipodi:nodetypes="scccscccs" />
    </clipPath>
    <clipPath
       clipPathUnits="userSpaceOnUse"
       id="clipPath9967-76">
      <path
         id="path9969-0"
         style="color:#000000;display:inline;overflow:visible;visibility:visible;fill:#000000;fill-opacity:0.41269842;stroke:none;stroke-width:0.2;marker:none;enable-background:accumulate"
         d="m 63.916973,1088.6518 c -4.166825,0 -7.5625,-2.079 -7.5625,-4.625 -0.07182,4.1679 6.28125,10.625 6.28125,10.625 0,0 -8.255322,8.4313 -5.84375,12.25 0.9375,1.296 2.958176,3 7.125,3 4.166825,0 6.09375,-1.6727 7.09375,-3 2.411572,-3.8187 -5.8125,-12.25 -5.8125,-12.25 0,0 6.321822,-6.4571 6.25,-10.625 0,2.546 -3.364426,4.625 -7.53125,4.625 z"
         inkscape:connector-curvature="0"
         sodipodi:nodetypes="scccscccs" />
    </clipPath>
  </defs>
  <metadata
     id="metadata7">
    <rdf:RDF>
      <cc:Work
         rdf:about="">
        <dc:format>image/svg+xml</dc:format>
        <dc:type
           rdf:resource="http://purl.org/dc/dcmitype/StillImage" />
        <dc:title></dc:title>
      </cc:Work>
    </rdf:RDF>
  </metadata>
  <g
     transform="translate(-177.81161,-562.54717)"
     id="layer1"
     inkscape:groupmode="layer"
     inkscape:label="Layer 1">
    <g
       id="g8863" />
    <flowRoot
       xml:space="preserve"
       id="flowRoot4583"
       style="font-style:normal;font-variant:normal;font-weight:normal;font-stretch:normal;font-size:105.84319305px;line-height:125%;font-family:'Swis721 BdOul BT';-inkscape-font-specification:'Swis721 BdOul BT';text-align:center;letter-spacing:0px;word-spacing:0px;text-anchor:middle;fill:#00aeef;fill-opacity:1;stroke:none;stroke-width:1px;stroke-linecap:butt;stroke-linejoin:miter;stroke-opacity:1"><flowRegion
         id="flowRegion4585"><rect
           id="rect4587"
           width="1186.978"
           height="191.60944"
           x="-1255.72"
           y="74.711327"
           style="font-style:normal;font-variant:normal;font-weight:normal;font-stretch:normal;font-size:105.84319305px;font-family:'Swis721 BdOul BT';-inkscape-font-specification:'Swis721 BdOul BT';text-align:center;text-anchor:middle;fill:#00aeef;fill-opacity:1" /></flowRegion><flowPara
         id="flowPara4589">Normal</flowPara></flowRoot>    <path
       style="opacity:1;fill:#000000;fill-opacity:1;stroke:none;stroke-width:1;stroke-miterlimit:4;stroke-dasharray:none;stroke-opacity:0.59537569"
       d="m -426.43521,383.01041 0,-31.25773 -11.22636,0 -11.22636,0 0,-4.18237 0,-4.18236 27.29548,0 27.29548,0 0,4.18236 0,4.18237 -11.22636,0 -11.22637,0 0,31.25773 0,31.25773 -4.84275,0 -4.84276,0 0,-31.25773 z"
       id="path4795"
       inkscape:connector-curvature="0" />
    <g
       id="g4593"
       transform="translate(-869.99995,173.99999)">
      <flowRoot
         style="font-style:normal;font-variant:normal;font-weight:normal;font-stretch:normal;font-size:81.26764679px;line-height:125%;font-family:'Swis721 BdOul BT';-inkscape-font-specification:'Swis721 BdOul BT';text-align:center;letter-spacing:0px;word-spacing:0px;text-anchor:middle;fill:#00aeef;fill-opacity:1;stroke:none;stroke-width:1px;stroke-linecap:butt;stroke-linejoin:miter;stroke-opacity:1"
         id="flowRoot4583-8-0-6"
         xml:space="preserve"
         transform="matrix(0.98696138,-0.00150292,-0.09674742,0.79361836,125.67865,-191.0909)"><flowRegion
           id="flowRegion4585-4-5-6"><rect
             style="font-style:normal;font-variant:normal;font-weight:normal;font-stretch:normal;font-size:81.26764679px;font-family:'Swis721 BdOul BT';-inkscape-font-specification:'Swis721 BdOul BT';text-align:center;text-anchor:middle;fill:#00aeef;fill-opacity:1"
             y="935.50812"
             x="-119.29057"
             height="226.46355"
             width="986.12494"
             id="rect4587-0-4-7" /></flowRegion><flowPara
           id="flowPara4589-0-4-7">Key Features</flowPara></flowRoot>      <path
         style="opacity:1;fill:#000000;fill-opacity:1;stroke:none;stroke-width:1;stroke-miterlimit:4;stroke-dasharray:none;stroke-opacity:0.59537569"
         d="m 196.79523,614.1871 -5.06015,-0.0497 -8.17888,-10.51646 c -5.36804,-6.90227 -8.24623,-10.46596 -8.37487,-10.36952 -0.20816,0.15605 -8.82033,6.43371 -8.91201,6.49621 -0.0393,0.0268 -1.80141,14.0593 -1.80211,14.35093 -4e-5,0.0243 -1.74819,0.0442 -3.88477,0.0442 l -3.88466,0 0.0882,-0.48613 c 0.0485,-0.26738 1.23798,-9.94414 2.64332,-21.50392 1.40535,-11.55978 2.57682,-21.03912 2.60328,-21.0652 0.0265,-0.0261 1.77613,-0.0743 3.88816,-0.10703 l 3.84005,-0.0596 -0.0944,0.61872 c -0.22761,1.49252 -2.50184,20.42302 -2.45928,20.47079 0.026,0.0292 6.27472,-4.72389 13.88602,-10.56241 l 13.83872,-10.61549 4.1884,0 c 2.30362,0 4.57737,-0.0488 5.05277,-0.10837 l 0.86436,-0.10837 -0.7955,0.52087 c -0.59013,0.38641 -22.43573,16.46444 -22.77427,16.76152 -0.12017,0.10546 20.14939,25.53298 20.69882,25.96602 0.55664,0.4387 0.56035,0.45036 0.13091,0.41206 -0.24307,-0.0217 -2.71901,-0.0618 -5.5021,-0.0891 z"
         id="path4409"
         inkscape:connector-curvature="0" />
      <path
         style="opacity:1;fill:#000000;fill-opacity:1;stroke:none;stroke-width:1;stroke-miterlimit:4;stroke-dasharray:none;stroke-opacity:0.59537569"
         d="m 223.6873,615.20177 c -10.57232,-0.98536 -15.62421,-8.83413 -12.81473,-19.90942 1.51725,-5.9812 5.72793,-10.44806 11.71668,-12.42957 4.19214,-1.38706 10.45064,-1.46015 14.63165,-0.17089 6.39839,1.97301 9.63893,7.2979 8.96312,14.72823 -0.10381,1.14124 -0.22913,2.11538 -0.27852,2.16476 -0.0494,0.0494 -6.45478,0.13584 -14.23422,0.19214 l -14.14445,0.10236 -0.0993,0.36998 c -0.19263,0.7175 -0.0957,3.21205 0.1683,4.33215 0.67303,2.85525 2.52696,4.66372 5.66479,5.52586 1.98559,0.54556 6.41777,0.5498 8.40703,0.008 2.35048,-0.64013 4.50251,-1.99302 4.83458,-3.0393 0.10934,-0.34448 0.25359,-0.35798 3.82445,-0.35798 2.91957,0 3.68335,0.0471 3.58193,0.22097 -1.98031,3.39468 -6.00654,6.14654 -10.90904,7.45614 -2.81822,0.75283 -6.48288,1.07022 -9.31224,0.80652 z m 15.47487,-19.88922 c 0.49472,-4.61967 -2.06211,-7.94802 -6.73012,-8.76092 -1.92272,-0.33482 -5.35176,-0.12519 -7.07922,0.43279 -2.72526,0.88028 -5.06096,2.81858 -6.15482,5.10762 -0.50417,1.05502 -1.16756,3.43508 -1.16756,4.18882 0,0.12572 3.33594,0.18423 10.50415,0.18423 l 10.50414,0 0.12343,-1.15254 z"
         id="path4411"
         inkscape:connector-curvature="0" />
      <path
         style="opacity:1;fill:#000000;fill-opacity:1;stroke:none;stroke-width:1;stroke-miterlimit:4;stroke-dasharray:none;stroke-opacity:0.59537569"
         d="m 257.67262,627.98974 c -1.07212,-0.0888 -1.01434,0.11446 -0.72551,-2.55193 l 0.20308,-1.87482 2.22786,-0.1024 c 3.47382,-0.15966 5.30207,-0.89339 6.56286,-2.63387 0.78931,-1.08961 1.1135,-2.39572 1.0188,-4.10455 -0.0706,-1.27326 -0.63696,-3.1838 -5.15697,-17.39539 -2.79273,-8.78076 -5.12159,-16.07943 -5.17525,-16.21926 -0.0831,-0.21668 0.51581,-0.25423 4.05499,-0.25423 3.80495,0 4.15958,0.0259 4.23657,0.30936 1.10947,4.08524 7.11486,25.09774 7.20107,25.19612 0.0665,0.0759 3.09762,-5.62974 6.73579,-12.67922 l 6.61484,-12.81725 3.85111,-0.005 3.85112,-0.005 -0.20959,0.39775 c -2.74247,5.20463 -22.0324,39.65772 -22.71156,40.56434 -1.57623,2.10412 -3.47672,3.30102 -6.08346,3.83126 -1.40298,0.28538 -4.93824,0.47211 -6.49575,0.3431 z"
         id="path4413"
         inkscape:connector-curvature="0" />
      <path
         style="opacity:1;fill:#000000;fill-opacity:1;stroke:none;stroke-width:1;stroke-miterlimit:4;stroke-dasharray:none;stroke-opacity:0.59537569"
         d="m 322.76483,613.39146 c 0.0542,-0.31599 1.21157,-9.76249 2.57183,-20.99223 1.36028,-11.22974 2.51974,-20.71602 2.57659,-21.08062 l 0.10337,-0.66291 18.03828,0 18.03827,0 -0.10072,0.66291 c -0.0554,0.3646 -0.1972,1.47829 -0.31512,2.47487 l -0.21438,1.81196 -14.29156,0 c -8.8713,0 -14.29156,0.0635 -14.29156,0.16732 0,0.092 -0.35797,3.07502 -0.79549,6.62887 -0.43752,3.55385 -0.7955,6.54122 -0.7955,6.63858 0,0.11652 4.26003,0.17704 12.46276,0.17704 l 12.46276,0 -0.006,0.39775 c -0.003,0.21876 -0.11989,1.23301 -0.25957,2.2539 -0.13968,1.02088 -0.25649,1.95559 -0.25957,2.07713 -0.004,0.17465 -2.63666,0.22097 -12.55674,0.22097 -11.31375,0 -12.55115,0.0275 -12.55115,0.27891 0,0.15341 -0.51707,4.51338 -1.14905,9.68883 -0.63197,5.17545 -1.14904,9.50471 -1.14904,9.62058 0,0.15652 -0.97895,0.21067 -3.80871,0.21067 l -3.80871,0 0.0986,-0.57453 z"
         id="path4415"
         inkscape:connector-curvature="0" />
      <path
         style="opacity:1;fill:#000000;fill-opacity:1;stroke:none;stroke-width:1;stroke-miterlimit:4;stroke-dasharray:none;stroke-opacity:0.59537569"
         d="m 379.70771,614.83102 c -6.1053,-0.89046 -10.4926,-4.54806 -11.85188,-9.88065 -0.45819,-1.79748 -0.54556,-5.03741 -0.19919,-7.38539 0.68054,-4.61327 2.32938,-7.95474 5.34054,-10.82292 2.77913,-2.64717 5.66532,-4.07548 9.87752,-4.88817 2.40608,-0.46422 7.18052,-0.41326 9.63433,0.10285 4.63925,0.97575 7.74323,3.10902 9.53506,6.55314 1.29522,2.48958 1.75225,5.77568 1.34598,9.67774 l -0.13333,1.28059 -14.25688,0.0452 -14.25688,0.0452 -0.0507,1.84099 c -0.0599,2.17653 0.15073,3.34054 0.86233,4.76457 1.3703,2.74222 4.32664,4.09671 8.99947,4.12325 4.2792,0.0243 7.76338,-1.1693 9.00006,-3.08322 l 0.42834,-0.66292 3.59431,0 c 2.01481,0 3.5943,0.07 3.5943,0.15927 0,0.0876 -0.36391,0.64337 -0.80869,1.23506 -2.63087,3.49982 -7.36347,5.97465 -13.03599,6.81694 -1.97265,0.29291 -5.87275,0.33304 -7.61871,0.0784 z m 8.66571,-18.71883 7.97358,-6.5e-4 0.10465,-1.12062 c 0.41516,-4.44583 -1.95914,-7.6766 -6.32909,-8.61216 -1.54903,-0.33164 -5.03722,-0.28365 -6.54075,0.09 -4.5231,1.124 -7.59062,4.4553 -8.13821,8.838 l -0.12979,1.03875 2.54301,-0.11633 c 1.39866,-0.064 6.13112,-0.11662 10.51659,-0.11697 z"
         id="path4417"
         inkscape:connector-curvature="0" />
      <path
         style="opacity:1;fill:#000000;fill-opacity:1;stroke:none;stroke-width:1;stroke-miterlimit:4;stroke-dasharray:none;stroke-opacity:0.59537569"
         d="m 419.53395,614.75484 c -4.55399,-0.70964 -6.97886,-3.09944 -7.18725,-7.08329 -0.16238,-3.10437 0.74911,-5.64317 2.66974,-7.43613 2.29405,-2.14155 5.81071,-3.2589 12.98218,-4.12484 4.16859,-0.50335 7.15699,-1.02381 8.72962,-1.52034 2.40521,-0.75942 3.43848,-2.29585 3.30617,-4.9161 -0.0502,-0.9945 -0.16048,-1.42371 -0.48884,-1.90292 -1.04424,-1.52397 -2.73946,-2.09568 -6.58721,-2.22154 -3.44123,-0.11256 -5.55834,0.21103 -7.39621,1.13048 -1.33644,0.66859 -2.66324,1.97818 -3.02902,2.98972 l -0.21986,0.60803 -3.2489,0 -3.24891,0 0.11707,-0.57452 c 0.46576,-2.28591 2.32525,-4.46995 4.95796,-5.82333 3.07041,-1.57837 5.97301,-2.23101 10.62262,-2.38847 9.60633,-0.3253 15.44244,2.40864 15.443,7.23433 8e-5,0.65343 -0.52765,5.46617 -1.17272,10.69499 -0.64508,5.22882 -1.1801,10.22289 -1.18895,11.09793 -0.0174,1.71694 0.22862,2.46404 0.98592,2.99447 0.36189,0.25348 0.068,0.2759 -3.61669,0.2759 -4.81102,0 -4.46859,0.21165 -4.45792,-2.75535 l 0.007,-1.95986 -1.59515,1.20118 c -4.9009,3.6905 -10.90791,5.33294 -16.38369,4.47966 l -10e-6,0 z m 11.33562,-5.56002 c 3.84321,-0.94601 6.71418,-3.38875 7.58563,-6.45415 0.1992,-0.70071 0.72288,-4.26002 0.72288,-4.91323 0,-0.25198 -0.0798,-0.30805 -0.30936,-0.21748 -1.08112,0.42647 -4.64176,1.2173 -7.20365,1.59996 -5.8307,0.87089 -6.54363,1.00724 -7.94966,1.52036 -2.48458,0.90674 -3.7812,2.20013 -4.14207,4.13176 -0.19851,1.06258 0.11246,2.38971 0.70981,3.02921 0.65616,0.70246 1.7892,1.29386 3.01431,1.57332 1.59218,0.3632 5.57751,0.22123 7.57211,-0.26975 z"
         id="path4419"
         inkscape:connector-curvature="0" />
      <path
         style="opacity:1;fill:#000000;fill-opacity:1;stroke:none;stroke-width:1;stroke-miterlimit:4;stroke-dasharray:none;stroke-opacity:0.59537569"
         d="m 465.25265,614.02682 c -3.46224,-0.4111 -5.12582,-1.33299 -5.6617,-3.1375 -0.4649,-1.56546 -0.31257,-3.94368 0.8879,-13.86345 0.63153,-5.2184 1.19198,-9.74654 1.24544,-10.06252 l 0.0972,-0.57453 -2.77243,0 -2.77243,0 0.12259,-1.35281 c 0.0674,-0.74405 0.16749,-1.57735 0.22238,-1.85178 l 0.0998,-0.49896 2.76239,-0.0486 2.7624,-0.0486 0.56379,-4.5078 c 0.31009,-2.47929 0.5689,-4.56747 0.57514,-4.64039 0.006,-0.0729 1.60234,-0.13258 3.54689,-0.13258 2.85361,0 3.53553,0.0461 3.53553,0.23911 0,0.13151 -0.23865,2.15866 -0.53033,4.50479 -0.29168,2.34613 -0.53033,4.34659 -0.53033,4.44547 0,0.11544 1.17933,0.17979 3.29478,0.17979 l 3.29478,0 -0.12003,1.19324 c -0.066,0.65629 -0.16672,1.49156 -0.22377,1.85616 l -0.10375,0.66291 -3.33617,0 c -2.26678,0 -3.33616,0.0611 -3.33616,0.19053 0,0.10479 -0.51707,4.42499 -1.14905,9.60044 -0.63197,5.17545 -1.14905,9.94062 -1.14905,10.58927 0,2.60581 0.81251,3.28831 4.10017,3.44414 l 1.95372,0.0926 -0.11736,1.16718 c -0.23668,2.35384 -0.26743,2.44636 -0.85179,2.56323 -0.54906,0.10982 -5.46732,0.10261 -6.41056,-0.009 l 0,10e-6 z"
         id="path4421"
         inkscape:connector-curvature="0" />
      <path
         style="opacity:1;fill:#000000;fill-opacity:1;stroke:none;stroke-width:1;stroke-miterlimit:4;stroke-dasharray:none;stroke-opacity:0.59537569"
         d="m 492.9182,614.67331 c -3.98219,-0.54442 -6.96022,-2.24294 -8.10414,-4.6222 -0.89286,-1.85708 -0.88853,-1.95236 0.67717,-14.90664 0.78767,-6.51708 1.46992,-12.02823 1.5161,-12.24699 0.0837,-0.39664 0.0939,-0.39774 3.66921,-0.39774 l 3.58523,0 -1.13672,9.0598 c -0.92169,7.34592 -1.14074,9.57815 -1.15792,11.79984 -0.0194,2.51103 0.0128,2.81392 0.3856,3.62393 1.06862,2.32185 3.09219,3.26374 7.01782,3.26651 5.25419,0.004 8.74359,-2.10605 10.87218,-6.57353 1.16463,-2.44432 1.49972,-4.1258 2.58868,-12.98979 l 1.00576,-8.18676 3.56975,0 3.56975,0 -0.0635,0.39774 c -0.0349,0.21876 -0.86275,7.04013 -1.8396,15.1586 -0.97686,8.11847 -1.81381,14.93984 -1.8599,15.1586 -0.0833,0.39557 -0.10221,0.39775 -3.43919,0.39775 l -3.35539,0 0.009,-0.39775 c 0.005,-0.21876 0.14826,-1.53132 0.31901,-2.91681 0.17075,-1.38549 0.28493,-2.51907 0.25375,-2.51907 -0.0312,0 -0.63364,0.57674 -1.3388,1.28163 -2.93071,2.92963 -5.87863,4.58191 -9.57483,5.36658 -1.51472,0.32157 -5.59307,0.46169 -7.16859,0.2463 l 10e-6,0 z"
         id="path4423"
         inkscape:connector-curvature="0" />
      <path
         style="opacity:1;fill:#000000;fill-opacity:1;stroke:none;stroke-width:1;stroke-miterlimit:4;stroke-dasharray:none;stroke-opacity:0.59537569"
         d="m 530.92518,613.36784 c 0,-0.13453 0.83527,-7.08928 1.85616,-15.45502 1.02089,-8.36574 1.85615,-15.25603 1.85615,-15.31176 0,-0.0557 1.59099,-0.10132 3.53553,-0.10132 l 3.53553,0 -0.009,0.48613 c -0.005,0.26738 -0.14826,1.61972 -0.31901,3.0052 -0.17075,1.38549 -0.29107,2.51907 -0.26739,2.51907 0.0237,0 0.78375,-0.7434 1.68903,-1.65201 3.22776,-3.23962 6.58407,-4.86552 10.69625,-5.1816 l 1.46794,-0.11284 0,0.50469 c 0,0.54023 -0.4871,4.67486 -0.62875,5.33691 -0.0825,0.3857 -0.14944,0.39775 -2.2105,0.39775 -3.4676,0 -5.86738,0.65811 -8.03184,2.20263 -1.87932,1.34106 -3.1612,3.26863 -3.69478,5.55587 -0.13636,0.58455 -0.71165,4.88513 -1.27843,9.55685 l -1.03053,8.49404 -3.58339,0 c -2.93345,0 -3.5834,-0.0444 -3.5834,-0.24459 z"
         id="path4425"
         inkscape:connector-curvature="0" />
      <path
         style="opacity:1;fill:#000000;fill-opacity:1;stroke:none;stroke-width:1;stroke-miterlimit:4;stroke-dasharray:none;stroke-opacity:0.59537569"
         d="m 574.90066,614.66124 c -4.47393,-0.37752 -8.42578,-2.25763 -10.66076,-5.07193 -0.97781,-1.23125 -2.06352,-3.43549 -2.45908,-4.99249 -0.46167,-1.81723 -0.54444,-4.87398 -0.19626,-7.24784 0.6381,-4.35033 2.21819,-7.73502 4.87274,-10.43789 2.95635,-3.01015 6.33466,-4.69609 10.84005,-5.40967 2.2535,-0.35692 7.48515,-0.245 9.48927,0.20301 3.09452,0.69175 5.89424,2.20716 7.60824,4.11811 1.13003,1.25988 2.34014,3.72767 2.7482,5.60442 0.33576,1.54425 0.42384,4.56145 0.18965,6.49654 l -0.14441,1.19324 -4.18437,0.0256 c -2.30141,0.0141 -8.7187,0.0738 -14.26065,0.13258 l -10.07627,0.10698 -0.0509,1.75149 c -0.028,0.96331 0.0368,2.17402 0.14399,2.69044 0.45586,2.19585 2.02712,4.23623 3.93425,5.10887 1.73145,0.79225 3.18399,1.04193 6.04896,1.03977 2.90811,-0.002 4.22968,-0.24394 6.21548,-1.13702 1.13959,-0.51252 2.62222,-1.73358 2.8053,-2.3104 0.10082,-0.31764 0.32182,-0.33725 3.80147,-0.33725 l 3.69444,0 -0.38899,0.65929 c -0.57547,0.97534 -2.53152,2.98323 -3.76069,3.86035 -4.15526,2.96513 -10.26504,4.45541 -16.20964,3.95379 z m 15.49495,-19.9356 c 0.23973,-2.43289 -0.45136,-4.77558 -1.85941,-6.30314 -1.57326,-1.70677 -3.43966,-2.38767 -6.90098,-2.51759 -2.90855,-0.10917 -4.48109,0.17439 -6.6091,1.19172 -3.11951,1.49135 -5.16472,4.35591 -5.64751,7.91006 l -0.12607,0.92807 10.51196,0 10.51197,0 0.11914,-1.20912 z"
         id="path4427"
         inkscape:connector-curvature="0" />
      <path
         style="opacity:1;fill:#000000;fill-opacity:1;stroke:none;stroke-width:1;stroke-miterlimit:4;stroke-dasharray:none;stroke-opacity:0.59537569"
         d="m 618.95997,614.55201 c -1.78959,-0.13343 -4.31688,-0.61125 -5.86672,-1.10918 -4.06615,-1.30637 -6.57672,-3.81503 -6.8173,-6.81213 l -0.0923,-1.15 3.73651,0 c 3.4401,0 3.73665,0.0245 3.73817,0.30936 0.003,0.54398 1.01773,2.10312 1.74249,2.67714 0.93401,0.73975 2.28028,1.31791 4.0011,1.71829 1.94382,0.45227 6.85964,0.4567 8.66206,0.008 2.54947,-0.63495 4.07598,-1.65555 4.79925,-3.2087 0.94598,-2.03141 0.20788,-3.56194 -2.32739,-4.82611 -1.63358,-0.81454 -3.70294,-1.37915 -8.5665,-2.33728 -7.99675,-1.57537 -10.90293,-2.90074 -12.21802,-5.57206 -0.54212,-1.10122 -0.55854,-1.20075 -0.47708,-2.89236 0.0742,-1.5416 0.15874,-1.90779 0.70398,-3.05057 2.18698,-4.58365 7.69658,-7.04564 15.76103,-7.04287 4.76248,0.002 8.09713,0.69047 10.89839,2.25127 2.16386,1.20565 3.87315,3.37939 4.17144,5.30489 l 0.11639,0.7513 -3.55812,0 c -3.08585,0 -3.55813,-0.0361 -3.55813,-0.2722 0,-0.4877 -0.67824,-1.61656 -1.27388,-2.12027 -1.57223,-1.32955 -4.06952,-2.01922 -7.32843,-2.02388 -5.31836,-0.008 -8.53155,1.61683 -9.00062,4.55024 -0.27132,1.69674 1.35711,2.99583 5.23772,4.17841 0.83147,0.25339 3.69113,0.89821 6.3548,1.43294 7.14668,1.43471 9.54751,2.26762 11.21905,3.89217 1.0818,1.05139 1.54848,2.12828 1.64765,3.80204 0.15691,2.64817 -0.74308,4.87915 -2.78676,6.90807 -2.64998,2.63085 -6.60544,4.06113 -12.6432,4.57173 -2.00509,0.16956 -4.50179,0.19422 -6.27557,0.062 z"
         id="path4429"
         inkscape:connector-curvature="0" />
    </g>
    <flowRoot
       transform="matrix(0.98696138,-0.00150292,-0.09674742,0.79361836,-1009.799,-498.69945)"
       xml:space="preserve"
       id="flowRoot4583-8-0-6-0"
       style="font-style:normal;font-variant:normal;font-weight:normal;font-stretch:normal;font-size:81.26764679px;line-height:125%;font-family:'Swis721 BdOul BT';-inkscape-font-specification:'Swis721 BdOul BT';text-align:center;letter-spacing:0px;word-spacing:0px;text-anchor:middle;fill:#00aeef;fill-opacity:1;stroke:none;stroke-width:1px;stroke-linecap:butt;stroke-linejoin:miter;stroke-opacity:1"><flowRegion
         id="flowRegion4585-4-5-6-1"><rect
           id="rect4587-0-4-7-5"
           width="986.12494"
           height="226.46355"
           x="-119.29057"
           y="935.50812"
           style="font-style:normal;font-variant:normal;font-weight:normal;font-stretch:normal;font-size:81.26764679px;font-family:'Swis721 BdOul BT';-inkscape-font-specification:'Swis721 BdOul BT';text-align:center;text-anchor:middle;fill:#00aeef;fill-opacity:1" /></flowRegion><flowPara
         id="flowPara4589-0-4-7-2">Italics</flowPara></flowRoot>    <flowRoot
       xml:space="preserve"
       id="flowRoot4554"
       style="font-style:normal;font-weight:normal;font-size:40px;line-height:125%;font-family:sans-serif;letter-spacing:0px;word-spacing:0px;fill:#000000;fill-opacity:1;stroke:none;stroke-width:1px;stroke-linecap:butt;stroke-linejoin:miter;stroke-opacity:1"
       transform="translate(142.69974,-36.300818)"><flowRegion
         id="flowRegion4556"><rect
           id="rect4558"
           width="531.99994"
           height="253.99998"
           x="-523.99994"
           y="388.00003" /></flowRegion><flowPara
         id="flowPara4560">&lt;---- Fill color</flowPara></flowRoot>    <g
       id="g4706">
      <g
         transform="matrix(0.21006078,0,0,0.21006078,302.1041,447.44464)"
         id="g4650">
        <ellipse
           ry="174.99944"
           rx="175"
           cy="722.94849"
           cx="817.04364"
           style="color:#000000;display:inline;overflow:visible;visibility:visible;fill:#f5f5f5;fill-opacity:1;fill-rule:nonzero;stroke:none;stroke-width:5;marker:none;enable-background:accumulate"
           id="path55521-1-3-8" />
        <g
           id="g4636"
           transform="translate(-14.299689,352.72137)">
          <path
             inkscape:connector-curvature="0"
             id="path4646-2-3"
             d="m 669.96661,371.52364 0,-6.69552 16.43327,0 16.43328,0 0,6.69552 0,6.69554 -16.43328,0 -16.43327,0 0,-6.69554 z"
             style="color:#000000;display:inline;overflow:visible;visibility:visible;fill:#141414;fill-opacity:1;fill-rule:nonzero;stroke:none;stroke-width:1.5;marker:none;enable-background:accumulate" />
          <path
             inkscape:connector-curvature="0"
             id="path4652-2-9"
             d="m 825.62125,225.93557 0,-16.44599 7.05951,0 7.05951,0 0,16.44599 0,16.44599 -7.05951,0 -7.05951,0 0,-16.44599 z"
             style="color:#000000;display:inline;overflow:visible;visibility:visible;fill:#141414;fill-opacity:1;fill-rule:nonzero;stroke:none;stroke-width:1.5;marker:none;enable-background:accumulate" />
          <path
             inkscape:connector-curvature="0"
             id="path4658-8-2"
             d="m 962.56328,371.51999 0,-6.66562 16.49301,0 16.49302,0 0,6.66562 0,6.66561 -16.49302,0 -16.49301,0 0,-6.66561 z"
             style="color:#000000;display:inline;overflow:visible;visibility:visible;fill:#141414;fill-opacity:1;fill-rule:nonzero;stroke:none;stroke-width:1.5;marker:none;enable-background:accumulate" />
          <path
             inkscape:connector-curvature="0"
             id="path4664-18-3"
             d="m 825.62125,517.1044 0,-16.44599 7.05951,0 7.05951,0 0,16.44599 0,16.44599 -7.05951,0 -7.05951,0 0,-16.44599 z"
             style="color:#000000;display:inline;overflow:visible;visibility:visible;fill:#141414;fill-opacity:1;fill-rule:nonzero;stroke:none;stroke-width:1.5;marker:none;enable-background:accumulate" />
          <path
             inkscape:connector-curvature="0"
             id="path4664-18-3-3"
             d="m 695.79536,442.35462 6.9282,-4 3.52976,6.11371 3.52975,6.11372 -6.9282,4 -6.9282,4 -3.52976,-6.11372 -3.52975,-6.11371 6.9282,-4 z"
             style="color:#000000;display:inline;overflow:visible;visibility:visible;fill:#141414;fill-opacity:1;fill-rule:nonzero;stroke:none;stroke-width:1.5;marker:none;enable-background:accumulate" />
          <path
             inkscape:connector-curvature="0"
             id="path4664-18-3-3-8"
             d="m 761.15761,234.12081 4,6.9282 -6.11371,3.52976 -6.11372,3.52975 -4,-6.9282 -4,-6.9282 6.11372,-3.52976 6.11371,-3.52975 4,6.9282 z"
             style="color:#000000;display:inline;overflow:visible;visibility:visible;fill:#141414;fill-opacity:1;fill-rule:nonzero;stroke:none;stroke-width:1.5;marker:none;enable-background:accumulate" />
          <path
             inkscape:connector-curvature="0"
             id="path4664-18-3-3-8-3"
             d="m 915.92623,502.24042 4,6.9282 -6.11372,3.52976 -6.11371,3.52975 -4,-6.9282 -4,-6.9282 6.11371,-3.52976 6.11372,-3.52975 4,6.9282 z"
             style="color:#000000;display:inline;overflow:visible;visibility:visible;fill:#141414;fill-opacity:1;fill-rule:nonzero;stroke:none;stroke-width:1.5;marker:none;enable-background:accumulate" />
          <path
             inkscape:connector-curvature="0"
             id="path4664-18-3-3-7"
             d="m 962.58385,288.32421 6.9282,-4 3.52976,6.11372 3.52975,6.11371 -6.9282,4 -6.9282,4 -3.52976,-6.11371 -3.52975,-6.11372 6.9282,-4 z"
             style="color:#000000;display:inline;overflow:visible;visibility:visible;fill:#141414;fill-opacity:1;fill-rule:nonzero;stroke:none;stroke-width:1.5;marker:none;enable-background:accumulate" />
          <path
             inkscape:connector-curvature="0"
             id="path4664-18-3-3-6"
             d="m 749.56217,501.34587 4,-6.9282 6.11371,3.52975 6.11372,3.52976 -4,6.9282 -4,6.9282 -6.11372,-3.52975 -6.11371,-3.52976 4,-6.9282 z"
             style="color:#000000;display:inline;overflow:visible;visibility:visible;fill:#141414;fill-opacity:1;fill-rule:nonzero;stroke:none;stroke-width:1.5;marker:none;enable-background:accumulate" />
          <path
             inkscape:connector-curvature="0"
             id="path4664-18-3-3-8-6"
             d="m 702.05063,288.32898 6.92821,4 -3.52976,6.11371 -3.52975,6.11372 -6.92821,-4 -6.9282,-4 3.52975,-6.11372 3.52976,-6.11371 6.9282,4 z"
             style="color:#000000;display:inline;overflow:visible;visibility:visible;fill:#141414;fill-opacity:1;fill-rule:nonzero;stroke:none;stroke-width:1.5;marker:none;enable-background:accumulate" />
          <path
             inkscape:connector-curvature="0"
             id="path4664-18-3-3-8-3-3"
             d="m 970.14401,443.14307 6.9282,4 -3.52975,6.11372 -3.52976,6.11371 -6.9282,-4 -6.92821,-4 3.52976,-6.11371 3.52975,-6.11372 6.92821,4 z"
             style="color:#000000;display:inline;overflow:visible;visibility:visible;fill:#141414;fill-opacity:1;fill-rule:nonzero;stroke:none;stroke-width:1.5;marker:none;enable-background:accumulate" />
          <path
             inkscape:connector-curvature="0"
             id="path4664-18-3-3-7-0"
             d="m 903.59257,234.55738 4,-6.9282 6.11372,3.52975 6.11371,3.52976 -4,6.9282 -4,6.9282 -6.11371,-3.52975 -6.11372,-3.52976 4,-6.9282 z"
             style="color:#000000;display:inline;overflow:visible;visibility:visible;fill:#141414;fill-opacity:1;fill-rule:nonzero;stroke:none;stroke-width:1.5;marker:none;enable-background:accumulate" />
        </g>
        <ellipse
           cy="722.94855"
           cx="817.04364"
           style="display:inline;opacity:0.8982301;fill:#000000;fill-opacity:0;stroke:#000000;stroke-width:0.61796707;stroke-miterlimit:4;stroke-dasharray:none;stroke-opacity:1"
           id="path5752-1-6-2-8-1"
           rx="174.69058"
           ry="174.69089" />
        <g
           id="g55728-3-3-2"
           transform="matrix(1.0036188,0,0,1.0007573,434.15806,815.96295)">
          <path
             inkscape:connector-curvature="0"
             id="path55517-34-1-4"
             d="m 380.78068,-2.0439402 c 0,-0.205186 -1.12461,-0.355136 -2.66354,-0.355136 -1.53894,0 -2.66355,-0.14995 -2.66355,-0.355135 0,-0.195333 -0.55935,-0.355146 -1.24298,-0.355146 -0.68365,0 -1.24299,-0.159814 -1.24299,-0.355136 0,-0.195332 -0.47945,-0.355136 -1.06542,-0.355136 -0.58598,0 -1.06542,-0.159813 -1.06542,-0.355146 0,-0.195322 -0.47944,-0.355136 -1.06542,-0.355136 -0.58597,0 -1.06541,-0.159812 -1.06541,-0.355144 0,-0.195323 -0.31963,-0.355136 -0.71029,-0.355136 -0.39064,0 -0.71027,-0.159814 -0.71027,-0.355136 0,-0.195332 -0.31962,-0.355146 -0.71028,-0.355146 -0.39066,0 -0.71049,-0.119856 -0.71074,-0.266349 -2.6e-4,-0.146495 -1.03904,-0.740317 -2.30841,-1.319613 -1.26936,-0.579287 -2.30793,-1.178582 -2.30793,-1.331766 0,-0.153184 -0.28435,-0.278524 -0.63189,-0.278524 -0.34752,0 -0.86224,-0.319617 -1.14381,-0.710272 -0.28157,-0.3906538 -0.63943,-0.7102808 -0.79526,-0.7102808 -0.15582,0 -1.30927,-0.99883 -2.56322,-2.219621 -1.25396,-1.220791 -2.7449,-2.619145 -3.31324,-3.107465 -0.56832,-0.488321 -1.32099,-1.447192 -1.6726,-2.130835 -0.35161,-0.683643 -0.8964,-1.48271 -1.21064,-1.775699 -0.31425,-0.292988 -0.79703,-0.972191 -1.07287,-1.50934 -0.27583,-0.537149 -0.63431,-0.976631 -0.79664,-0.976631 -0.16231,0 -0.29512,-0.23972 -0.29512,-0.532709 0,-0.292988 -0.15982,-0.532708 -0.35514,-0.532708 -0.19533,0 -0.35514,-0.319627 -0.35514,-0.710282 0,-0.390654 -0.15982,-0.710271 -0.35514,-0.710271 -0.19533,0 -0.35514,-0.319627 -0.35514,-0.710282 0,-0.390654 -0.15981,-0.710281 -0.35514,-0.710281 -0.19532,0 -0.35514,-0.399534 -0.35514,-0.887845 0,-0.48832 -0.15981,-0.887854 -0.35513,-0.887854 -0.19533,0 -0.35514,-0.399524 -0.35514,-0.887844 0,-0.488311 -0.15189,-0.887845 -0.33751,-0.887845 -0.18562,0 -0.44639,-0.962457 -0.57949,-2.13879 -0.13308,-1.176322 -0.38074,-2.224533 -0.55033,-2.329361 -0.16961,-0.104818 -0.30836,-0.900309 -0.30836,-1.767743 0,-0.867443 -0.15982,-1.577172 -0.35515,-1.577172 -0.48146,0 -0.48146,-13.020158 0,-13.317716 0.19533,-0.120719 0.35515,-0.849302 0.35515,-1.619089 0,-0.769778 0.14118,-1.39959 0.31376,-1.39959 0.17257,0 0.42501,-1.038788 0.56097,-2.308407 0.13597,-1.269619 0.3943,-2.308408 0.57409,-2.308408 0.17977,0 0.32687,-0.319616 0.32687,-0.710271 0,-0.390654 0.15981,-0.710282 0.35514,-0.710282 0.19532,0 0.35513,-0.319627 0.35513,-0.710281 0,-0.390655 0.15982,-0.710271 0.35514,-0.710271 0.19533,0 0.35514,-0.399535 0.35514,-0.887855 0,-0.488311 0.15981,-0.887845 0.35514,-0.887845 0.19532,0 0.35514,-0.319627 0.35514,-0.710281 0,-0.390654 0.15981,-0.710272 0.35514,-0.710272 0.19532,0 0.35514,-0.209585 0.35514,-0.465749 0,-0.256154 0.31962,-0.808822 0.71027,-1.228134 0.39066,-0.419323 0.71028,-1.008794 0.71028,-1.309959 0,-0.301154 0.14042,-0.547555 0.31205,-0.547555 0.17164,0 0.51066,-0.479441 0.75336,-1.065418 0.24273,-0.585976 0.57098,-1.065417 0.72944,-1.065417 0.15847,0 0.40166,-0.359576 0.54043,-0.799057 0.13877,-0.439493 0.54907,-1.057532 0.91178,-1.373433 0.36271,-0.3159 0.65948,-0.755383 0.65948,-0.976631 0,-0.221248 0.15981,-0.402266 0.35514,-0.402266 0.19532,0 0.35513,-0.165137 0.35513,-0.366979 0,-0.201841 0.51939,-0.922429 1.15421,-1.60131 0.6348,-0.678882 1.79344,-1.955893 2.57475,-2.837791 0.78132,-0.881907 2.09976,-2.314585 2.9299,-3.183726 0.83014,-0.869141 1.50934,-1.813417 1.50934,-2.098389 0,-0.284963 0.27967,-0.615388 0.62149,-0.734279 0.34183,-0.118891 1.18085,-0.856706 1.86449,-1.639601 1.12349,-1.286596 4.28309,-4.497693 6.83658,-6.947974 1.04263,-1.000497 0.95941,-1.382925 -0.56764,-2.608578 -0.36504,-0.292988 -1.64522,-1.530403 -2.84483,-2.749798 -4.6754,-4.752512 -5.21156,-5.280242 -6.58735,-6.483822 -0.78146,-0.68364 -1.42819,-1.44275 -1.43721,-1.68691 -0.009,-0.24416 -0.16541,-0.44392 -0.34757,-0.44392 -0.18216,0 -0.42674,-0.30102 -0.54351,-0.66891 -0.24959,-0.78642 -2.18085,-2.88249 -2.65583,-2.88249 -0.18046,0 -0.43209,-0.32759 -0.55918,-0.72799 -0.12708,-0.4004 -0.7771,-1.27404 -1.44448,-1.94143 -0.66739,-0.66738 -1.21343,-1.37856 -1.21343,-1.58041 0,-0.20184 -0.15982,-0.36697 -0.35514,-0.36697 -0.19534,0 -0.35515,-0.23972 -0.35515,-0.53271 0,-0.29299 -0.14249,-0.53271 -0.31663,-0.53271 -0.17415,0 -0.41692,-0.39954 -0.53948,-0.88785 -0.12255,-0.48832 -0.3602,-0.88785 -0.52811,-0.88785 -0.16792,0 -0.50389,-0.47943 -0.74662,-1.06542 -0.2427,-0.58597 -0.58172,-1.06542 -0.75336,-1.06542 -0.17163,0 -0.31205,-0.31961 -0.31205,-0.71026 0,-0.39066 -0.13016,-0.71029 -0.28925,-0.71029 -0.36334,0 -1.84158,-2.73511 -1.84158,-3.40738 0,-0.27454 -0.15982,-0.49916 -0.35514,-0.49916 -0.19533,0 -0.35514,-0.31962 -0.35514,-0.71026 0,-0.39065 -0.15981,-0.71028 -0.35514,-0.71028 -0.19532,0 -0.35514,-0.31963 -0.35514,-0.71029 0,-0.39065 -0.15981,-0.71027 -0.35513,-0.71027 -0.19533,0 -0.35514,-0.47944 -0.35514,-1.06542 0,-0.58598 -0.1414,-1.06541 -0.31422,-1.06541 -0.17283,0 -0.42405,-0.87898 -0.55827,-1.95327 -0.13422,-1.0743 -0.39236,-1.95326 -0.57363,-1.95326 -0.18126,0 -0.32957,-0.79907 -0.32957,-1.7757 0,-0.97663 -0.15982,-1.7757 -0.35515,-1.7757 -0.2089,0 -0.35514,-1.24299 -0.35514,-3.01869 0,-1.77569 -0.14623,-3.01867 -0.35514,-3.01867 -0.19533,0 -0.35514,-0.87898 -0.35514,-1.95327 0,-1.0743 0.15981,-1.95326 0.35514,-1.95326 0.20891,0 0.35514,-1.243 0.35514,-3.01869 0,-1.66027 0.14373,-3.01868 0.31938,-3.01868 0.17567,0 0.40656,-0.6792 0.51313,-1.50935 0.36468,-2.84095 1.07826,-5.94857 1.36594,-5.94857 0.15814,0 0.28753,-0.31963 0.28753,-0.71028 0,-0.39066 0.15981,-0.71028 0.35514,-0.71028 0.19532,0 0.35513,-0.31963 0.35513,-0.71028 0,-0.39066 0.15982,-0.71028 0.35514,-0.71028 0.19533,0 0.35514,-0.31961 0.35514,-0.71027 0,-0.39065 0.15981,-0.71028 0.35514,-0.71028 0.19532,0 0.35514,-0.23972 0.35514,-0.53272 0,-0.29298 0.15981,-0.5327 0.35514,-0.5327 0.19532,0 0.35514,-0.25551 0.35514,-0.5678 0,-0.31228 0.47944,-1.01565 1.06542,-1.56304 0.58597,-0.54738 1.06541,-1.1781 1.06541,-1.40162 0,-0.35011 0.69569,-1.22649 2.05148,-2.58426 3.59768,-3.60296 5.82971,-5.60287 6.25317,-5.60287 0.28929,0 0.62332,-0.30671 0.74229,-0.68158 0.14489,-0.45651 0.68048,-0.75997 1.62206,-0.91906 0.77315,-0.13062 1.4063,-0.3433 1.40699,-0.47263 7.1e-4,-0.12932 0.87909,-0.63467 1.95201,-1.12298 1.07291,-0.48832 1.9513,-1.00771 1.952,-1.15421 7e-4,-0.14649 0.32088,-0.26635 0.71154,-0.26635 0.39066,0 0.71028,-0.15982 0.71028,-0.35514 0,-0.19533 0.47943,-0.35514 1.06542,-0.35514 0.58598,0 1.06542,-0.15981 1.06542,-0.35514 0,-0.19532 0.63924,-0.35514 1.42055,-0.35514 0.78131,0 1.42056,-0.15981 1.42056,-0.35513 0,-0.19533 0.71916,-0.35515 1.59813,-0.35515 0.87896,0 1.59812,-0.15981 1.59812,-0.35513 0,-0.22549 2.72273,-0.35514 7.45793,-0.35514 4.73518,0 7.45792,0.12965 7.45792,0.35514 0,0.19532 0.55934,0.35513 1.24298,0.35513 0.68364,0 1.24299,0.15982 1.24299,0.35515 0,0.19532 0.63925,0.35513 1.42055,0.35513 0.78131,0 1.42057,0.15982 1.42057,0.35514 0,0.19533 0.47944,0.35514 1.06541,0.35514 0.58598,0 1.06542,0.15981 1.06542,0.35514 0,0.19532 0.23972,0.35514 0.53271,0.35514 0.29298,0 0.5327,0.15981 0.5327,0.35514 0,0.19532 0.22461,0.35514 0.49915,0.35514 0.49793,0 3.42569,1.40827 3.76253,1.8098 0.0976,0.11642 0.61705,0.31923 1.1542,0.45069 0.53715,0.13145 0.97663,0.39577 0.97663,0.58738 0,0.1916 0.20445,0.34838 0.45431,0.34838 0.24987,0 0.68468,0.31963 0.96624,0.71028 0.28157,0.39066 0.71934,0.71028 0.97284,0.71028 0.37443,0 2.21229,1.63753 5.4953,4.89632 1.48479,1.47383 2.66477,2.89293 3.09185,3.7184 0.27717,0.53573 0.63675,0.97403 0.79907,0.97403 0.16231,0 0.29513,0.23971 0.29513,0.53272 0,0.29298 0.1598,0.5327 0.35513,0.5327 0.19532,0 0.35513,0.23972 0.35513,0.53271 0,0.293 0.15982,0.53272 0.35515,0.53272 0.19533,0 0.35514,0.23971 0.35514,0.5327 0,0.29299 0.15982,0.53271 0.35514,0.53271 0.19533,0 0.35514,0.31962 0.35514,0.71027 0,0.39066 0.1598,0.71028 0.35513,0.71028 0.19532,0 0.35514,0.31963 0.35514,0.71028 0,0.39066 0.14203,0.71028 0.31562,0.71028 0.17359,0 0.42781,0.59807 0.56495,1.32907 0.13713,0.73098 0.35339,1.49009 0.48056,1.6869 0.4513,0.69839 1.11424,2.8556 1.1195,3.64288 0.003,0.43949 0.16516,0.79906 0.36049,0.79906 0.19532,0 0.35513,0.62983 0.35513,1.3996 0,0.76978 0.15982,1.49837 0.35515,1.6191 0.19532,0.12072 0.35513,1.64837 0.35513,3.39478 0,1.8801 0.14487,3.17529 0.35514,3.17529 0.19534,0 0.35515,0.55934 0.35515,1.24298 0,0.68365 -0.15981,1.243 -0.35515,1.243 -0.2089,0 -0.35514,1.24298 -0.35514,3.01867 0,1.7757 -0.14623,3.01869 -0.35513,3.01869 -0.19533,0 -0.35515,0.63925 -0.35515,1.42055 0,0.78131 -0.15981,1.42055 -0.35513,1.42055 -0.19533,0 -0.35513,0.55935 -0.35513,1.243 0,0.68363 -0.15982,1.24298 -0.35516,1.24298 -0.19532,0 -0.35513,0.3901 -0.35513,0.8669 0,0.47678 -0.1459,0.95706 -0.32424,1.06727 -0.17832,0.11021 -0.43209,0.83881 -0.56393,1.61908 -0.13183,0.78029 -0.38544,1.41871 -0.5636,1.41871 -0.17816,0 -0.32393,0.23971 -0.32393,0.5327 0,0.293 -0.15982,0.53272 -0.35514,0.53272 -0.19533,0 -0.35513,0.31961 -0.35513,0.71027 0,0.39065 -0.15981,0.71027 -0.35514,0.71027 -0.19532,0 -0.35514,0.31963 -0.35514,0.71029 0,0.39065 -0.15981,0.71027 -0.35514,0.71027 -0.19533,0 -0.35515,0.31963 -0.35515,0.71028 0,0.39066 -0.13415,0.71029 -0.29812,0.71029 -0.16398,0 -0.4745,0.38706 -0.69006,0.86015 -0.21555,0.4731 -0.68069,1.20568 -1.03364,1.62797 -0.35293,0.42229 -1.0011,1.19386 -1.44035,1.71459 -0.43924,0.52074 -0.79882,1.14124 -0.79906,1.37889 -2.3e-4,0.23764 -0.55978,0.99142 -1.24343,1.67507 -0.68363,0.68364 -1.24297,1.42933 -1.24297,1.65709 0,0.4553 -1.3513,1.74041 -1.83004,1.74041 -0.16544,0 -0.30251,0.19976 -0.3046,0.44392 -0.004,0.43918 -2.15341,3 -4.24819,5.06074 -2.30523,2.26773 -6.27516,6.258137 -7.32636,7.364146 -0.60597,0.637546 -1.44499,1.394225 -1.86449,1.681507 -1.03112,0.706124 -1.03112,2.510902 0,3.217026 0.4195,0.287272 1.25852,1.04395 1.86449,1.681507 1.22524,1.289117 5.60658,5.683448 7.40048,7.422433 1.32843,1.28777 3.22138,3.583139 3.43439,4.164495 0.15358,0.419171 0.91572,1.127966 2.13091,1.981779 0.40887,0.287273 0.74341,0.742545 0.74341,1.011718 0,0.269161 0.457,0.916301 1.01556,1.438071 0.55857,0.52178 1.14078,1.345006 1.2938,1.829398 0.15301,0.484393 0.57498,1.139177 0.93769,1.455077 0.3627,0.315901 0.65947,0.720105 0.65947,0.898231 0,0.178126 0.31963,0.554235 0.71028,0.835802 0.39066,0.281578 0.71028,0.796295 0.71028,1.143827 0,0.347533 0.15981,0.631872 0.35514,0.631872 0.19533,0 0.35515,0.284349 0.35515,0.631882 0,0.347532 0.31961,0.862249 0.71026,1.143817 0.39067,0.281567 0.71029,0.796286 0.71029,1.143817 0,0.347532 0.15982,0.631881 0.35514,0.631881 0.19533,0 0.35514,0.319618 0.35514,0.710272 0,0.390654 0.1598,0.710281 0.35513,0.710281 0.19532,0 0.35514,0.239721 0.35514,0.532709 0,0.292988 0.13924,0.532709 0.3094,0.532709 0.17015,0 0.41538,0.799058 0.54492,1.775698 0.12956,0.976631 0.38988,1.775689 0.57846,1.775689 0.18861,0 0.34292,0.479441 0.34292,1.065418 0,0.585986 0.14168,1.065417 0.31482,1.065417 0.33195,0 0.67049,1.309678 0.98686,3.817747 0.10472,0.830136 0.33411,1.509339 0.50978,1.509339 0.17565,0 0.31937,1.038788 0.31937,2.308407 0,1.387636 0.14999,2.308408 0.37602,2.308408 0.75952,0 -0.007,10.341667 -1.07902,14.560706 -0.22336,0.878965 -0.49432,2.037608 -0.60214,2.574756 -0.10781,0.537149 -0.33771,0.976631 -0.51087,0.976631 -0.17314,0 -0.31482,0.390102 -0.31482,0.866891 0,0.476789 -0.1459,0.957063 -0.32424,1.067276 -0.17832,0.110212 -0.43209,0.838805 -0.56393,1.619089 -0.13183,0.780284 -0.38544,1.418695 -0.5636,1.418695 -0.17816,0 -0.32393,0.23972 -0.32393,0.532708 0,0.292989 -0.15982,0.532709 -0.35514,0.532709 -0.19533,0 -0.35513,0.28434 -0.35513,0.631881 0,0.347532 -0.31963,0.862242 -0.71028,1.143819 -0.39066,0.281567 -0.71029,0.723641 -0.71029,0.982386 0,0.258746 -0.39953,0.869985 -0.88784,1.358295 -0.48832,0.488321 -0.88785,1.033133 -0.88785,1.210706 0,0.177573 -0.41733,0.711849 -0.92739,1.187292 -1.26119,1.175569 -1.30699,1.221856 -3.30538,3.340737 -0.96717,1.025459 -1.97329,1.864475 -2.23585,1.864475 -0.26255,0 -0.70773,0.319627 -0.98931,0.7102808 -0.28156,0.390655 -0.79628,0.710272 -1.14381,0.710272 -0.34754,0 -0.63187,0.15677 -0.63187,0.348376 0,0.191605 -0.39953,0.448652 -0.88786,0.57121 -0.4883,0.122557 -0.88784,0.365322 -0.88784,0.539479 0,0.174147 -0.31962,0.316634 -0.71028,0.316634 -0.39065,0 -0.71027,0.159814 -0.71027,0.355136 0,0.195332 -0.31963,0.355145 -0.71028,0.355145 -0.39066,0 -0.71029,0.159814 -0.71029,0.355136 0,0.195332 -0.31963,0.355136 -0.71027,0.355136 -0.39066,0 -0.71028,0.159814 -0.71028,0.355146 0,0.195322 -0.3901,0.355136 -0.86689,0.355136 -0.47679,0 -0.96565,0.159813 -1.08638,0.355136 -0.12071,0.195332 -0.60958,0.355144 -1.08637,0.355144 -0.47679,0 -0.8669,0.159814 -0.8669,0.355136 0,0.195333 -0.47943,0.355146 -1.06541,0.355146 -0.58598,0 -1.06542,0.159804 -1.06542,0.355136 0,0.195322 -0.79906,0.355136 -1.7757,0.355136 -0.97663,0 -1.77568,0.159813 -1.77568,0.355146 0,0.205185 -1.12461,0.355135 -2.66355,0.355135 -1.53894,0 -2.66354,0.14995 -2.66354,0.355136 0,0.205196 -1.12461,0.355146 -2.66355,0.355146 -1.53894,0 -2.66354,-0.14995 -2.66354,-0.355146 z m 7.28035,-17.4018118 c 0.12072,-0.195332 0.84931,-0.355146 1.61909,-0.355146 0.76977,0 1.39959,-0.159813 1.39959,-0.355135 0,-0.195333 0.47944,-0.355136 1.06542,-0.355136 0.58599,0 1.06541,-0.159814 1.06541,-0.355146 0,-0.195322 0.2306,-0.355136 0.51242,-0.355136 0.58163,0 3.15475,-1.429534 3.33493,-1.852774 0.0651,-0.152933 0.38941,-0.278061 0.72066,-0.278061 0.33126,0 0.83266,-0.319627 1.11422,-0.710282 0.28157,-0.390654 0.6491,-0.710271 0.81672,-0.710271 0.27694,0 1.99732,-1.711422 4.06645,-4.045273 0.43948,-0.495714 0.79906,-1.14673 0.79906,-1.4467 0,-0.299969 0.15981,-0.545395 0.35514,-0.545395 0.19533,0 0.35514,-0.319627 0.35514,-0.710281 0,-0.390655 0.15982,-0.710282 0.35514,-0.710282 0.19533,0 0.35514,-0.319617 0.35514,-0.710271 0,-0.390655 0.11986,-0.711528 0.26635,-0.713055 0.4299,-0.004 1.15421,-1.83006 1.15421,-2.909139 0,-0.547043 0.15981,-0.994621 0.35513,-0.994621 0.22236,0 0.35514,-2.183038 0.35514,-5.838832 0,-3.50948 -0.14167,-5.926402 -0.35514,-6.058331 -0.19532,-0.12072 -0.35513,-0.769395 -0.35513,-1.441517 0,-0.672111 -0.15982,-1.222026 -0.35514,-1.222026 -0.19534,0 -0.35515,-0.399525 -0.35515,-0.887845 0,-0.48832 -0.15981,-0.887844 -0.35513,-0.887844 -0.19533,0 -0.35514,-0.479441 -0.35514,-1.065418 0,-0.585986 -0.15981,-1.065416 -0.35514,-1.065416 -0.19532,0 -0.35514,-0.319628 -0.35514,-0.710282 0,-0.390655 -0.15981,-0.710281 -0.35514,-0.710281 -0.19533,0 -0.35514,-0.319618 -0.35514,-0.710272 0,-0.390654 -0.15982,-0.710282 -0.35514,-0.710282 -0.19532,0 -0.35513,-0.239719 -0.35513,-0.532708 0,-0.292988 -0.15677,-0.532709 -0.34838,-0.532709 -0.19161,0 -0.45733,-0.434128 -0.59051,-0.964738 -0.13317,-0.530609 -0.53575,-1.279894 -0.89461,-1.665084 -0.35887,-0.3852 -0.65248,-0.874666 -0.65248,-1.087707 0,-0.213042 -0.31963,-0.617708 -0.71028,-0.899276 -0.39065,-0.281577 -0.71028,-0.796285 -0.71028,-1.143826 0,-0.347533 -0.13536,-0.631872 -0.3008,-0.631872 -0.47874,0 -1.83003,-1.285109 -1.83003,-1.740412 0,-0.227757 -0.51939,-0.965953 -1.1542,-1.640434 -0.63482,-0.674482 -2.11308,-2.272648 -3.28504,-3.551468 -2.47003,-2.695264 -3.5148,-3.765614 -6.71914,-6.883748 -1.2853,-1.250724 -2.33691,-2.409368 -2.33691,-2.574766 0,-0.573229 -1.09505,-0.296876 -1.97467,0.498345 -2.48594,2.247405 -7.03597,6.993286 -11.60251,12.101917 -0.72868,0.81519 -1.80742,1.997007 -2.39718,2.626277 -0.58978,0.62926 -1.07232,1.273185 -1.07232,1.430939 0,0.157754 -0.31962,0.5172 -0.71028,0.798767 -0.39066,0.281567 -0.71047,0.67642 -0.71071,0.877458 -2.4e-4,0.201037 -0.3952,0.824552 -0.8777,1.385586 -0.48249,0.561036 -0.9725,1.320145 -1.08891,1.686913 -0.11641,0.366768 -0.36069,0.666848 -0.54286,0.666848 -0.18217,0 -0.3312,0.251131 -0.3312,0.558082 0,0.306941 -0.23973,0.797792 -0.53271,1.09078 -0.29301,0.292988 -0.53272,0.840915 -0.53272,1.217617 0,0.376702 -0.15981,0.684919 -0.35514,0.684919 -0.19532,0 -0.35513,0.399523 -0.35513,0.887844 0,0.48832 -0.15982,0.887844 -0.35514,0.887844 -0.19533,0 -0.35514,0.319627 -0.35514,0.710281 0,0.390655 -0.15982,0.710282 -0.35515,0.710282 -0.19532,0 -0.35513,0.479431 -0.35513,1.065417 0,0.585976 -0.15981,1.065418 -0.35514,1.065418 -0.19532,0 -0.35514,0.709719 -0.35514,1.577162 0,0.867444 -0.15981,1.675933 -0.35513,1.796652 -0.47322,0.292466 -0.47322,7.99064 0,7.99064 0.19532,0 0.35513,0.799057 0.35513,1.775688 0,0.976631 0.15982,1.775699 0.35514,1.775699 0.19533,0 0.35514,0.479441 0.35514,1.065418 0,0.585976 0.15981,1.065416 0.35513,1.065416 0.19533,0 0.35515,0.239721 0.35515,0.532709 0,0.292989 0.15981,0.532709 0.35514,0.532709 0.19532,0 0.35514,0.319627 0.35514,0.710282 0,0.390654 0.15981,0.710271 0.35513,0.710271 0.19533,0 0.35514,0.294776 0.35514,0.655045 0,0.360268 0.39934,1.119378 0.88742,1.686912 0.48808,0.567524 0.89239,1.191681 0.89847,1.387003 0.006,0.195333 0.49676,0.75468 1.0904,1.24299 0.59365,0.488321 1.62232,1.407244 2.28595,2.042049 0.66363,0.634814 1.41636,1.154203 1.67274,1.154203 0.25638,0 0.69652,0.319627 0.97808,0.710282 0.28157,0.390654 0.71638,0.710281 0.96625,0.710281 0.24987,0 0.45431,0.159804 0.45431,0.355136 0,0.195322 0.31962,0.355136 0.71028,0.355136 0.39065,0 0.71028,0.159813 0.71028,0.355146 0,0.195322 0.31963,0.355136 0.71027,0.355136 0.39066,0 0.71029,0.159814 0.71029,0.355136 0,0.195332 0.47944,0.355146 1.06541,0.355146 0.58598,0 1.06542,0.159803 1.06542,0.355136 0,0.195322 0.62982,0.355135 1.3996,0.355135 0.76978,0 1.49837,0.159814 1.61908,0.355146 0.1264,0.204513 2.00916,0.355136 4.43924,0.355136 2.43008,0 4.31283,-0.150623 4.43924,-0.355136 z m -3.72896,-86.630028 c 0,-0.37748 0.27967,-0.78361 0.6215,-0.9025 0.34182,-0.11889 1.18082,-0.85671 1.86447,-1.6396 0.68364,-0.78289 2.24069,-2.41438 3.46008,-3.62552 1.21941,-1.21114 2.89744,-2.87775 3.72896,-3.70356 2.31361,-2.29773 3.10999,-3.23168 3.10999,-3.64718 0,-0.20882 0.51939,-0.92032 1.15422,-1.58111 1.96324,-2.04359 3.10744,-3.3926 3.10789,-3.66418 2.4e-4,-0.14312 0.39977,-0.72455 0.88785,-1.29209 0.48808,-0.56753 0.88742,-1.32664 0.88742,-1.68692 0,-0.36026 0.15981,-0.65503 0.35513,-0.65503 0.19533,0 0.35515,-0.23972 0.35515,-0.5327 0,-0.29301 0.15981,-0.53272 0.35513,-0.53272 0.19532,0 0.35514,-0.31963 0.35514,-0.71028 0,-0.39065 0.15981,-0.71027 0.35514,-0.71027 0.19533,0 0.35514,-0.31963 0.35514,-0.71029 0,-0.39064 0.13092,-0.71027 0.29094,-0.71027 0.16002,0 0.51129,-0.8092 0.7806,-1.7982 0.26933,-0.98902 0.61783,-1.87742 0.77448,-1.97423 0.15666,-0.0968 0.28482,-0.69398 0.28482,-1.32702 0,-0.63306 0.16874,-1.31975 0.375,-1.52602 0.24242,-0.24242 0.31887,-2.05677 0.21623,-5.13175 -0.17022,-5.09925 -0.47839,-7.42029 -0.98524,-7.42029 -0.17395,0 -0.31628,-0.47944 -0.31628,-1.06541 0,-0.58599 -0.15981,-1.06544 -0.35513,-1.06544 -0.19533,0 -0.35514,-0.23971 -0.35514,-0.5327 0,-0.293 -0.15981,-0.53272 -0.35514,-0.53272 -0.19532,0 -0.35514,-0.31962 -0.35514,-0.71027 0,-0.39065 -0.15981,-0.71027 -0.35514,-0.71027 -0.19533,0 -0.35514,-0.28434 -0.35514,-0.63189 0,-0.34753 -0.31962,-0.86225 -0.71027,-1.14381 -0.39065,-0.28157 -0.71028,-0.79177 -0.71028,-1.13378 0,-0.34201 -0.56022,-1.14575 -1.24492,-1.78608 -0.68469,-0.64034 -1.79806,-1.68363 -2.47413,-2.31844 -0.67608,-0.63482 -1.41557,-1.15421 -1.64333,-1.15421 -0.22776,0 -0.67257,-0.28241 -0.98847,-0.6276 -0.3159,-0.34516 -1.37344,-1.0019 -2.35007,-1.4594 -0.97663,-0.45752 -2.05319,-0.97417 -2.39237,-1.14811 -0.33916,-0.17395 -1.01836,-0.31627 -1.50934,-0.31627 -0.49096,0 -0.89266,-0.15982 -0.89266,-0.35515 0,-0.19533 -0.62982,-0.35514 -1.3996,-0.35514 -0.76978,0 -1.49836,-0.15981 -1.61908,-0.35514 -0.12251,-0.19822 -1.77939,-0.35513 -3.74993,-0.35513 -2.11686,0 -3.53043,0.1422 -3.53043,0.35513 0,0.19533 -0.71916,0.35514 -1.59812,0.35514 -0.87897,0 -1.59813,0.15981 -1.59813,0.35514 0,0.19533 -0.32214,0.35515 -0.71586,0.35515 -1.00016,0 -3.54581,0.82696 -3.54581,1.15188 0,0.14777 -0.31962,0.26866 -0.71028,0.26866 -0.39064,0 -0.71027,0.15982 -0.71027,0.35516 0,0.19532 -0.20445,0.35513 -0.45431,0.35513 -0.24987,0 -0.68469,0.31963 -0.96626,0.71028 -0.28157,0.39066 -0.7217,0.71027 -0.97807,0.71027 -0.25639,0 -1.00912,0.51939 -1.67276,1.15421 -0.66362,0.63481 -1.69564,1.55374 -2.29339,2.04204 -0.59776,0.48833 -1.35872,1.48716 -1.69104,2.21963 -0.33231,0.73247 -0.73327,1.33177 -0.891,1.33177 -0.15774,0 -0.28679,0.31963 -0.28679,0.71027 0,0.39066 -0.15982,0.71029 -0.35514,0.71029 -0.19533,0 -0.35514,0.31962 -0.35514,0.71027 0,0.39065 -0.15982,0.71027 -0.35515,0.71027 -0.19532,0 -0.35513,0.39954 -0.35513,0.88786 0,0.48831 -0.15981,0.88784 -0.35514,0.88784 -0.19532,0 -0.35514,0.63926 -0.35514,1.42057 0,0.7813 -0.15981,1.42055 -0.35513,1.42055 -0.47815,0 -0.47815,10.1811 0,10.4766 0.19532,0.12072 0.35513,0.92922 0.35513,1.79666 0,0.86745 0.15982,1.57717 0.35514,1.57717 0.19533,0 0.35514,0.39953 0.35514,0.88784 0,0.48832 0.15981,0.88786 0.35513,0.88786 0.19533,0 0.35515,0.31962 0.35515,0.71026 0,0.39066 0.15981,0.71029 0.35514,0.71029 0.19532,0 0.35514,0.39953 0.35514,0.88784 0,0.48832 0.14202,0.88785 0.31562,0.88785 0.17358,0 0.41529,0.53135 0.53713,1.18077 0.12182,0.64942 0.53914,1.52171 0.92737,1.93841 0.38822,0.41671 0.70584,0.96878 0.70584,1.22681 0,0.25804 0.31963,0.69954 0.71029,0.9811 0.39065,0.28157 0.71028,0.76101 0.71028,1.06542 0,0.30441 0.31962,0.78385 0.71027,1.06541 0.39066,0.28158 0.71028,0.65227 0.71028,0.82376 0,0.17151 0.47945,0.7597 1.06542,1.30708 0.58598,0.54738 1.06542,1.1776 1.06542,1.40046 0,0.50766 0.35358,0.93601 3.10746,3.76454 1.2208,1.25387 2.21963,2.36709 2.21963,2.47383 0,0.35981 7.2598,7.27701 7.63742,7.27701 0.20569,0 0.60434,0.31963 0.88591,0.71029 0.66295,0.91978 1.7757,0.93478 1.7757,0.0239 l 0,-1e-5 z"
             style="color:#000000;display:inline;overflow:visible;visibility:visible;fill:#00aeef;fill-opacity:1;fill-rule:nonzero;stroke:none;stroke-width:5;marker:none;enable-background:accumulate" />
          <path
             inkscape:connector-curvature="0"
             id="path55519-1-2-2"
             d="m 287.1353,13.360146 c 0,-2.687482 0.092,-3.157761 0.70427,-3.5990362 0.38734,-0.279181 0.70425,-0.789538 0.70425,-1.134124 0,-0.344587 0.15846,-0.626527 0.35213,-0.626527 0.19367,0 0.35213,-0.28193 0.35213,-0.626516 0,-0.344587 0.31692,-0.854943 0.70426,-1.134124 0.38735,-0.279181 0.70426,-0.789538 0.70426,-1.134124 0,-0.344587 0.15845,-0.626527 0.35213,-0.626527 0.19367,0 0.35213,-0.316918 0.35213,-0.704262 0,-0.387344 0.15846,-0.704252 0.35213,-0.704252 0.19367,0 0.35213,-0.165093 0.35213,-0.366857 0,-0.201774 0.31495,-0.704909 0.69988,-1.118089 0.38492,-0.413169 0.79871,-1.27807104 0.91951,-1.92197804 0.12079,-0.643926 0.36045,-1.17076496 0.53258,-1.17076496 0.17211,0 0.31293,-0.28193 0.31293,-0.626517 0,-0.344587 0.31692,-0.854943 0.70426,-1.134124 0.38735,-0.279191 0.70427,-0.710318 0.70427,-0.958066 0,-0.247748 0.15845,-0.450458 0.35212,-0.450458 0.19367,0 0.35213,-0.244312 0.35213,-0.542915 0,-0.298603 0.31692,-0.883089 0.70426,-1.298848 0.38734,-0.415769 0.70426,-0.963743 0.70426,-1.217736 0,-0.253983 0.15846,-0.461792 0.35213,-0.461792 0.19367,0 0.35213,-0.316919 0.35213,-0.704263 0,-0.387344 0.15845,-0.704262 0.35213,-0.704262 0.19367,0 0.35213,-0.258714 0.35213,-0.5749148 0,-0.316212 0.29425,-0.831199 0.65388,-1.144423 0.35964,-0.313223 0.76646,-0.926035 0.90406,-1.361793 0.24894,-0.788432 0.28604,-0.792286 7.62115,-0.792286 l 7.37099,0 0,-77.996686 0,-77.996681 -4.07464,0 c -4.2064,0 -5.08072,-0.26837 -5.08072,-1.55943 0,-0.30434 -0.15846,-0.55335 -0.35213,-0.55335 -0.19368,0 -0.35214,-0.31692 -0.35214,-0.70426 0,-0.38734 -0.15845,-0.70426 -0.35212,-0.70426 -0.19367,0 -0.35213,-0.20781 -0.35213,-0.46179 0,-0.254 -0.31692,-0.80197 -0.70426,-1.21774 -0.38734,-0.41576 -0.70426,-0.92102 -0.70426,-1.12278 0,-0.20177 -0.15846,-0.36686 -0.35213,-0.36686 -0.19367,0 -0.35213,-0.28193 -0.35213,-0.62652 0,-0.34459 -0.31691,-0.85495 -0.70426,-1.13413 -0.38734,-0.27918 -0.70426,-0.78953 -0.70426,-1.13412 0,-0.34459 -0.14082,-0.62652 -0.31293,-0.62652 -0.17213,0 -0.41178,-0.52684 -0.53258,-1.17076 -0.1208,-0.64392 -0.53458,-1.50881 -0.91951,-1.92199 -0.38494,-0.41317 -0.69988,-0.91631 -0.69988,-1.11808 0,-0.20177 -0.15846,-0.36686 -0.35213,-0.36686 -0.19368,0 -0.35213,-0.3169 -0.35213,-0.70425 0,-0.38734 -0.15846,-0.70426 -0.35213,-0.70426 -0.19367,0 -0.35213,-0.20781 -0.35213,-0.46179 0,-0.254 -0.31692,-0.80197 -0.70426,-1.21774 -0.38734,-0.41576 -0.70426,-1.00024 -0.70426,-1.29885 0,-0.2986 -0.15846,-0.54291 -0.35213,-0.54291 -0.19367,0 -0.35212,-0.31692 -0.35212,-0.70426 0,-0.38735 -0.15846,-0.70427 -0.35214,-0.70427 -0.19367,0 -0.35213,-0.17948 -0.35213,-0.39885 0,-0.21938 -0.35127,-0.70353 -0.78063,-1.07589 -0.68659,-0.59548 -0.79756,-1.09885 -0.92127,-4.17883 l -0.14065,-3.50179 92.651,0 92.65101,0 0,2.2111 c 0,1.80716 -0.12866,2.30385 -0.70425,2.71871 -0.38734,0.27918 -0.70426,0.78954 -0.70426,1.13412 0,0.34459 -0.15846,0.62653 -0.35213,0.62653 -0.19367,0 -0.35213,0.31692 -0.35213,0.70426 0,0.38734 -0.15845,0.70426 -0.35213,0.70426 -0.19367,0 -0.35213,0.20271 -0.35213,0.45045 0,0.24776 -0.31691,0.67889 -0.70426,0.95807 -0.38734,0.27918 -0.70426,0.78953 -0.70426,1.13412 0,0.34459 -0.15845,0.62652 -0.35213,0.62652 -0.19366,0 -0.35212,0.28194 -0.35212,0.62653 0,0.34458 -0.30779,0.84836 -0.68398,1.1195 -0.37618,0.27113 -0.78626,1.09841 -0.91127,1.83838 -0.12502,0.73997 -0.37184,1.34541 -0.54848,1.34541 -0.17665,0 -0.32119,0.20271 -0.32119,0.45045 0,0.24775 -0.3169,0.67888 -0.70425,0.95806 -0.38734,0.27918 -0.70426,0.78954 -0.70426,1.13412 0,0.3446 -0.15846,0.62653 -0.35213,0.62653 -0.19367,0 -0.35213,0.31692 -0.35213,0.70426 0,0.38735 -0.15846,0.70426 -0.35213,0.70426 -0.19367,0 -0.35212,0.28194 -0.35212,0.62652 0,0.34459 -0.31692,0.85494 -0.70427,1.13413 -0.38734,0.27918 -0.70426,0.7103 -0.70426,0.95805 0,0.24776 -0.15846,0.45046 -0.35212,0.45046 -0.19367,0 -0.35213,0.24432 -0.35213,0.54292 0,0.29861 -0.31495,0.88097 -0.69988,1.29415 -0.38493,0.41318 -0.79871,1.27807 -0.91951,1.92199 -0.1208,0.64392 -0.36046,1.17076 -0.53258,1.17076 -0.17211,0 -0.31294,0.31691 -0.31294,0.70426 0,0.67743 -0.23475,0.70426 -6.16227,0.70426 l -6.16227,0 0,77.996681 0,77.996686 2.99311,0 c 2.75835,0 2.9931,0.05528 2.9931,0.704252 0,0.387343 0.15846,0.704262 0.35212,0.704262 0.19368,0 0.35214,0.237689 0.35214,0.528194 0,0.290505 0.15846,0.528194 0.35212,0.528194 0.19368,0 0.35214,0.28194 0.35214,0.626527 0,0.344586 0.31691,0.8549428 0.70425,1.1341238 0.38735,0.279181 0.70427,0.789538 0.70427,1.134124 0,0.344587 0.15845,0.626517 0.35212,0.626517 0.19368,0 0.35214,0.316918 0.35214,0.704262 0,0.387344 0.15845,0.704262 0.35212,0.704262 0.19367,0 0.35213,0.306242 0.35213,0.680528 0,0.374297 0.31692,0.781112 0.70426,0.904055 0.38735,0.122933 0.70426,0.529757 0.70426,0.904054 0,0.374286 0.15845,0.680528 0.35213,0.680528 0.19367,0 0.35213,0.316919 0.35213,0.704262 0,0.387334 0.15846,0.704253 0.35213,0.704253 0.19367,0 0.35213,0.305604 0.35213,0.67910296 0,0.37352 0.23769,0.916803 0.52819,1.207308 0.29051,0.290506 0.5282,0.77719804 0.5282,1.08153704 0,0.304339 0.15846,0.553353 0.35212,0.553353 0.19368,0 0.35214,0.2027 0.35214,0.450458 0,0.247748 0.31691,0.678875 0.70425,0.958056 0.38735,0.279181 0.70426,0.789537 0.70426,1.134124 0,0.344586 0.15846,0.626526 0.35213,0.626526 0.19368,0 0.35214,0.316909 0.35214,0.704253 0,0.387343 0.15845,0.704262 0.35212,0.704262 0.19367,0 0.35213,0.28194 0.35213,0.626526 0,0.344587 0.31692,0.854943 0.70426,1.134124 0.38734,0.279181 0.70426,0.789538 0.70426,1.134124 0,0.344587 0.15846,0.6265172 0.35213,0.6265172 0.19367,0 0.35212,0.224482 0.35212,0.498853 0,0.27437 0.17724,0.557924 0.39385,0.630132 0.21769,0.07261 0.4751,1.266907 0.57551,2.670312 l 0.18166,2.539043 -92.65736,0 -92.65738,0 0,-3.09143 z M 388.98876,-2.0658762 c 1.69462,-0.11852 3.08113,-0.358181 3.08113,-0.532586 0,-0.174395 0.7923,-0.317088 1.76065,-0.317088 0.96836,0 1.76064,-0.158459 1.76064,-0.352126 0,-0.193677 0.39615,-0.352136 0.88033,-0.352136 0.48418,0 0.88032,-0.142902 0.88032,-0.317556 0,-0.174654 0.95076,-0.4279 2.11278,-0.562764 1.16203,-0.134875 2.11278,-0.388111 2.11278,-0.562775 0,-0.174653 0.31692,-0.317556 0.70426,-0.317556 0.38734,0 0.70426,-0.158449 0.70426,-0.352126 0,-0.193667 0.23768,-0.352126 0.5282,-0.352126 0.2905,0 0.52819,-0.158459 0.52819,-0.352136 0,-0.193667 0.31691,-0.352126 0.70425,-0.352126 0.38735,0 0.70426,-0.158459 0.70426,-0.352126 0,-0.193677 0.31692,-0.352136 0.70427,-0.352136 0.38734,0 0.70425,-0.158449 0.70425,-0.352126 0,-0.193667 0.20781,-0.352126 0.4618,-0.352126 0.25398,0 0.80196,-0.316919 1.21773,-0.704263 0.41577,-0.387344 1.00024,-0.704262 1.29885,-0.704262 0.2986,0 0.54292,-0.151249 0.54292,-0.336121 0,-0.3178148 1.16166,-1.5338478 2.20179,-2.3048498 1.6152,-1.197269 2.00451,-1.232446 13.63925,-1.232446 l 11.62506,0 0,-77.996686 0,-77.996681 -10.57989,0 -10.57989,0 -0.86432,-0.86433 c -0.47537,-0.47536 -0.86432,-1.02214 -0.86432,-1.21505 0,-0.47323 -4.14879,-4.61109 -4.62326,-4.61109 -0.20687,0 -0.82019,-0.47537 -1.36295,-1.05638 -0.54274,-0.58101 -1.20516,-1.05639 -1.47205,-1.05639 -0.26688,0 -0.71367,-0.31692 -0.99285,-0.70426 -0.27918,-0.38734 -0.78954,-0.70426 -1.13412,-0.70426 -0.34459,0 -0.62653,-0.15846 -0.62653,-0.35213 0,-0.19367 -0.29996,-0.35213 -0.66658,-0.35213 -0.36662,0 -0.75111,-0.22027 -0.85442,-0.48948 -0.22657,-0.59043 -2.20588,-1.6233 -3.11078,-1.6233 -0.35758,0 -0.65016,-0.153 -0.65016,-0.34 0,-0.18699 -0.79229,-0.4451 -1.76064,-0.57355 -0.96836,-0.12846 -1.76065,-0.37161 -1.76065,-0.54033 0,-0.16871 -0.55461,-0.30677 -1.23246,-0.30677 -0.67785,0 -1.23245,-0.15846 -1.23245,-0.35212 0,-0.19367 -0.79229,-0.35213 -1.76064,-0.35213 -0.96836,0 -1.76065,-0.15846 -1.76065,-0.35213 0,-0.2224 -2.46491,-0.35213 -6.69046,-0.35213 -4.22555,0 -6.69047,0.12973 -6.69047,0.35213 0,0.19562 -0.93901,0.35213 -2.11277,0.35213 -1.17377,0 -2.11278,0.1565 -2.11278,0.35213 0,0.19366 -0.47538,0.35212 -1.05639,0.35212 -0.58101,0 -1.05639,0.13639 -1.05639,0.30309 0,0.16669 -0.83094,0.40149 -1.84653,0.52178 -1.0156,0.12027 -1.90033,0.38003 -1.96606,0.57723 -0.0657,0.19721 -0.40826,0.35855 -0.76115,0.35855 -0.81877,0 -3.52632,1.39525 -4.2708,2.20081 -0.31322,0.33892 -0.82821,0.61623 -1.14441,0.61623 -0.31622,0 -0.57493,0.15846 -0.57493,0.35213 0,0.19368 -0.25334,0.35213 -0.56298,0.35213 -0.30964,0 -1.00705,0.47537 -1.5498,1.05638 -0.54274,0.58102 -1.15579,1.05639 -1.36233,1.05639 -0.4998,0 -6.03238,5.50293 -6.03238,6.00005 0,0.21373 -0.22638,0.61496 -0.50305,0.89163 -0.41207,0.41208 -2.29052,0.50305 -10.38781,0.50305 l -9.88478,0 0,77.996681 0,77.996686 12.64957,0 12.64957,0 1.03939,0.968354 c 1.66981,1.555699 4.2197,3.6093248 4.48152,3.6093248 0.13269,0 0.89808,0.436226 1.70085,0.969381 0.80278,0.533154 2.25188,1.362928 3.22024,1.843923 0.96835,0.481005 1.84462,0.988095 1.94727,1.126854 0.10263,0.138769 0.85882,0.359785 1.68041,0.491164 0.82159,0.131378 1.57888,0.376517 1.68285,0.544747 0.10397,0.16823 0.56648,0.305873 1.0278,0.305873 0.46131,0 0.92587,0.14095 1.03234,0.313223 0.21946,0.355094 1.69665,0.642811 5.39534,1.050891 1.40485,0.154993 2.67082,0.398359 2.81328,0.540823 0.14247,0.142464 1.36992,0.170252 2.72768,0.06175 1.35777,-0.108501 3.85517,-0.29424 5.5498,-0.412751 z"
             style="color:#000000;display:inline;overflow:visible;visibility:visible;fill:#115c78;fill-opacity:1;fill-rule:nonzero;stroke:none;stroke-width:5;marker:none;enable-background:accumulate" />
        </g>
      </g>
      <g
         id="g4692">
        <flowRoot
           transform="matrix(0.45630705,0,0,0.45630705,598.44747,533.73514)"
           xml:space="preserve"
           id="flowRoot4583-7"
           style="font-style:normal;font-variant:normal;font-weight:normal;font-stretch:normal;font-size:105.84319305px;line-height:125%;font-family:'Swis721 BdOul BT';-inkscape-font-specification:'Swis721 BdOul BT';text-align:center;letter-spacing:0px;word-spacing:0px;text-anchor:middle;fill:#00aeef;fill-opacity:1;stroke:none;stroke-width:1px;stroke-linecap:butt;stroke-linejoin:miter;stroke-opacity:1"><flowRegion
             id="flowRegion4585-3"><rect
               id="rect4587-0"
               width="1186.978"
               height="191.60944"
               x="-1255.72"
               y="74.711327"
               style="font-style:normal;font-variant:normal;font-weight:normal;font-stretch:normal;font-size:105.84319305px;font-family:'Swis721 BdOul BT';-inkscape-font-specification:'Swis721 BdOul BT';text-align:center;text-anchor:middle;fill:#00aeef;fill-opacity:1" /></flowRegion><flowPara
             id="flowPara4589-9">Team 4324</flowPara></flowRoot>        <path
           style="opacity:1;fill:#000000;fill-opacity:1;stroke:none;stroke-width:1;stroke-miterlimit:4;stroke-dasharray:none;stroke-opacity:0.59537569"
           d="m 34.865608,31.713405 0,-14.230523 -5.126524,0 -5.126524,0 0,-1.944544 0,-1.944544 12.551145,0 12.551145,0 0,1.944544 0,1.944544 -5.126524,0 -5.126524,0 0,14.230523 0,14.230523 -2.298097,0 -2.298097,0 0,-14.230523 z"
           id="path4676"
           inkscape:connector-curvature="0"
           transform="translate(154.47425,569.03824)" />
        <path
           style="opacity:1;fill:#000000;fill-opacity:1;stroke:none;stroke-width:1;stroke-miterlimit:4;stroke-dasharray:none;stroke-opacity:0.59537569"
           d="m 56.72123,46.547362 c -3.338184,-0.807998 -6.068003,-3.654879 -7.192193,-7.500613 -0.552026,-1.888421 -0.687663,-6.362501 -0.257282,-8.486626 0.896222,-4.423255 3.333199,-7.24647 7.258239,-8.408601 1.405565,-0.416162 4.671636,-0.413228 6.252195,0.0056 4.812719,1.275358 7.585394,5.449262 7.609365,11.454919 l 0.0062,1.545099 -8.529475,0.04589 -8.529475,0.04589 0.04995,1.237437 c 0.09961,2.467419 1.099525,4.711771 2.541041,5.703452 1.246888,0.85779 2.325874,1.151584 4.214908,1.147667 2.553735,-0.0053 4.532661,-0.9096 5.126187,-2.3425 l 0.220007,-0.531143 2.179241,0 2.179243,0 -0.275319,0.658929 c -1.026465,2.456677 -3.690988,4.584633 -6.706293,5.35582 -1.634829,0.418117 -4.567623,0.450929 -6.14651,0.06876 z m 9.376228,-13.9665 c 0.186084,-0.484928 -0.275492,-3.089136 -0.719375,-4.058704 -0.52374,-1.143999 -1.523232,-2.166032 -2.677605,-2.737991 -0.777239,-0.3851 -1.106495,-0.434271 -2.909357,-0.434484 -1.794195,-2.11e-4 -2.135131,0.05006 -2.903188,0.428075 -2.117819,1.042328 -3.453136,3.385136 -3.458675,6.068229 l -0.0021,1.016466 6.281121,0 c 5.582985,0 6.29313,-0.0313 6.389177,-0.281591 z"
           id="path4678"
           inkscape:connector-curvature="0"
           transform="translate(154.47425,569.03824)" />
        <path
           style="opacity:1;fill:#000000;fill-opacity:1;stroke:none;stroke-width:1;stroke-miterlimit:4;stroke-dasharray:none;stroke-opacity:0.59537569"
           d="m 80.878111,46.580548 c -1.816987,-0.590283 -2.940819,-1.576545 -3.746936,-3.28827 -0.419315,-0.890382 -0.457881,-1.165832 -0.457881,-3.270369 0,-2.157181 0.03024,-2.359684 0.493222,-3.302472 1.12313,-2.287091 2.902702,-3.099188 9.0339,-4.122567 3.16403,-0.528119 4.412169,-0.899864 5.063204,-1.508021 1.076258,-1.005376 1.1436,-3.397133 0.135578,-4.815329 -0.816081,-1.148154 -3.456329,-1.77796 -5.876301,-1.401735 -2.245089,0.349036 -3.562238,1.26834 -4.015193,2.802404 l -0.227014,0.768847 -1.929978,0 -1.929979,0 0.109751,-0.800722 c 0.367184,-2.6789 2.505296,-4.675713 5.893593,-5.50411 1.622619,-0.396711 5.525505,-0.39582 7.17196,0.0016 2.493584,0.601955 4.094203,1.714924 4.941999,3.436353 l 0.580694,1.179086 0.09038,8.931412 c 0.04971,4.912276 0.161236,9.09051 0.247839,9.284964 0.08661,0.194454 0.277024,0.492765 0.423156,0.662913 0.251143,0.292418 0.138112,0.309359 -2.064177,0.309359 l -2.329871,0 -0.18566,-0.486136 c -0.102113,-0.267375 -0.231006,-1.023095 -0.286429,-1.679379 -0.05542,-0.656283 -0.12945,-1.193242 -0.164505,-1.193242 -0.03505,0 -0.533662,0.457409 -1.108016,1.016466 -1.170481,1.139304 -2.472941,1.980747 -4.119375,2.661284 -0.922423,0.381276 -1.438467,0.467304 -3.054487,0.509209 -1.293422,0.03354 -2.19398,-0.03061 -2.689474,-0.191582 z m 6.578561,-3.882125 c 1.991259,-0.531912 3.571488,-1.872336 4.217484,-3.577465 0.35513,-0.937377 0.649143,-5.199782 0.358382,-5.195588 -0.08605,0.0012 -0.776815,0.200378 -1.535041,0.442525 -0.758225,0.242148 -2.46854,0.639886 -3.800698,0.883863 -2.861857,0.524132 -3.890235,0.861721 -4.727596,1.551945 -0.886682,0.730879 -1.202445,1.442734 -1.205411,2.717481 -0.0039,1.658916 0.835398,2.73462 2.537483,3.252371 0.730775,0.222291 3.209758,0.177469 4.155397,-0.07513 z"
           id="path4680"
           inkscape:connector-curvature="0"
           transform="translate(154.47425,569.03824)" />
        <path
           style="opacity:1;fill:#000000;fill-opacity:1;stroke:none;stroke-width:1;stroke-miterlimit:4;stroke-dasharray:none;stroke-opacity:0.59537569"
           d="m 104.16207,34.276667 0,-11.667262 1.94454,0 1.94455,0 0,2.121321 c 0,1.166726 0.0632,2.12132 0.14045,2.12132 0.0773,0 0.45259,-0.4093 0.83409,-0.909556 2.04307,-2.679063 4.97418,-4.052807 8.13693,-3.813609 2.12745,0.160899 4.16564,1.358129 5.22204,3.06742 l 0.3705,0.59948 0.9123,-0.823016 c 2.22411,-2.006433 3.819,-2.721276 6.36472,-2.85271 3.71294,-0.191697 6.23443,1.09203 7.51678,3.826892 l 0.46583,0.993487 0.0527,9.501747 0.0527,9.501747 -2.12986,0 -2.12987,0 0,-8.277014 c 0,-9.404591 -7.1e-4,-9.410723 -1.33991,-10.749873 -0.99875,-0.99875 -2.26821,-1.384326 -4.13618,-1.256293 -2.3611,0.161833 -3.9525,1.296863 -4.78862,3.415359 -0.40685,1.030836 -0.41396,1.163285 -0.48132,8.957064 l -0.0684,7.910757 -2.01742,0 -2.01742,0 -0.003,-7.999145 c -0.003,-8.668089 -0.0683,-9.409117 -0.94665,-10.736352 -0.63175,-0.954635 -1.66379,-1.453103 -3.21888,-1.554691 -1.95148,-0.127484 -3.10997,0.280427 -4.32366,1.52239 -0.81896,0.838044 -1.06394,1.247285 -1.49916,2.504343 l -0.52023,1.502602 -0.0597,7.380426 -0.0597,7.380427 -2.1092,0 -2.10921,0 0,-11.667261 z"
           id="path4682"
           inkscape:connector-curvature="0"
           transform="translate(154.47425,569.03824)" />
        <path
           style="opacity:1;fill:#000000;fill-opacity:1;stroke:none;stroke-width:1;stroke-miterlimit:4;stroke-dasharray:none;stroke-opacity:0.59537569"
           d="m 171.51399,42.231617 0,-3.71231 -6.80591,0 -6.8059,0 0,-2.265766 0,-2.265765 5.6192,-9.44569 5.6192,-9.44569 3.13124,-0.04827 3.13125,-0.04827 0,10.257127 0,10.257126 1.85616,0 1.85615,0 0,1.496419 0,1.496416 -1.81196,0.05038 -1.81196,0.05038 -0.0478,3.668117 -0.0478,3.668116 -1.94096,0 -1.94095,0 0,-3.712311 z m 0,-15.556348 c 0,-4.861359 -0.0597,-8.837194 -0.13259,-8.835189 -0.11357,0.0031 -9.28284,15.404928 -10.16888,17.080881 l -0.31358,0.593142 5.30752,0 5.30753,0 0,-8.838834 z"
           id="path4684"
           inkscape:connector-curvature="0"
           transform="translate(154.47425,569.03824)" />
        <path
           style="opacity:1;fill:#000000;fill-opacity:1;stroke:none;stroke-width:1;stroke-miterlimit:4;stroke-dasharray:none;stroke-opacity:0.59537569"
           d="m 192.72719,46.824675 c -3.29493,-0.417189 -5.7399,-1.963778 -6.98319,-4.417283 -0.50514,-0.996846 -1.14854,-3.289781 -1.14854,-4.093139 l 0,-0.502053 1.92447,0 1.92447,0 0.11448,0.763359 c 0.16293,1.086537 1.00458,2.749908 1.77747,3.512873 1.01362,1.000611 2.06488,1.424154 3.77345,1.520288 2.91161,0.163828 4.85071,-0.792117 5.8903,-2.903829 0.5264,-1.069264 0.59422,-1.381706 0.65472,-3.015856 0.0507,-1.370679 -0.006,-2.046647 -0.22732,-2.724302 -0.81291,-2.485334 -2.62069,-3.710061 -5.88835,-3.989214 l -1.28163,-0.109488 0,-1.211498 0,-1.211497 0.72578,0 c 1.09211,0 2.79977,-0.49419 3.69364,-1.06892 1.41493,-0.909769 2.12132,-2.436187 2.12132,-4.583944 0,-2.478399 -0.86416,-4.043431 -2.74349,-4.968625 -1.06437,-0.523988 -1.32535,-0.578296 -2.79498,-0.581607 -1.30622,-0.0029 -1.79263,0.07354 -2.50487,0.393864 -1.65509,0.744359 -2.77576,2.276021 -3.02612,4.135912 l -0.11302,0.839689 -1.91839,0 -1.91839,0 0.10067,-0.839689 c 0.26321,-2.19553 0.9326,-3.73558 2.2114,-5.087719 1.58273,-1.673503 4.01567,-2.548708 7.10198,-2.554803 4.36721,-0.0086 7.57687,1.661527 9.09492,4.732557 0.64703,1.308948 0.66454,1.395829 0.66454,3.298308 0,1.770229 -0.0466,2.053677 -0.49538,3.014608 -0.58756,1.258054 -1.43426,2.19005 -2.80892,3.091886 l -1.0062,0.660113 1.29142,0.818082 c 2.10901,1.336007 3.36522,2.939043 3.89377,4.968807 0.35053,1.346146 0.35235,3.964366 0.004,5.303009 -0.82726,3.176063 -3.50991,5.719751 -6.88878,6.531937 -1.38694,0.333382 -3.77347,0.460684 -5.21491,0.278174 l 0,0 z"
           id="path4686"
           inkscape:connector-curvature="0"
           transform="translate(154.47425,569.03824)" />
        <path
           style="opacity:1;fill:#000000;fill-opacity:1;stroke:none;stroke-width:1;stroke-miterlimit:4;stroke-dasharray:none;stroke-opacity:0.59537569"
           d="m 211.19539,45.104239 c 0.20789,-1.412618 0.99939,-3.559194 1.72809,-4.68663 1.2375,-1.914657 3.54017,-4.059038 7.73442,-7.202766 3.16018,-2.36865 5.33268,-4.83398 6.0445,-6.859242 0.54421,-1.548362 0.45201,-3.879156 -0.215,-5.435216 -0.95737,-2.233455 -3.40815,-3.489536 -6.23449,-3.195318 -2.83176,0.294782 -4.53468,2.211878 -4.84901,5.458863 l -0.0984,1.016466 -2.03377,0 -2.03376,0 0.11722,-1.261228 c 0.1625,-1.748425 0.41155,-2.691192 1.09336,-4.138798 1.44224,-3.062131 4.42099,-4.670107 8.6513,-4.670107 3.23931,0 5.60049,0.880133 7.53237,2.807696 1.96715,1.962747 2.7106,3.887595 2.70262,6.997272 -0.0122,4.740051 -2.04547,7.671716 -8.46226,12.201135 -1.65013,1.164776 -3.49485,2.579803 -4.09936,3.144502 -0.9987,0.932914 -2.0044,2.475217 -2.0044,3.073846 0,0.185722 1.42406,0.230457 7.33623,0.230457 l 7.33623,0 0,1.679378 0,1.679379 -10.18473,0 -10.18473,0 0.12357,-0.839689 z"
           id="path4688"
           inkscape:connector-curvature="0"
           transform="translate(154.47425,569.03824)" />
        <path
           style="opacity:1;fill:#000000;fill-opacity:1;stroke:none;stroke-width:1;stroke-miterlimit:4;stroke-dasharray:none;stroke-opacity:0.59537569"
           d="m 250.70994,42.231617 0,-3.71231 -6.8059,0 -6.8059,0 0.006,-2.253903 0.006,-2.253902 5.63399,-9.457553 5.63399,-9.457553 3.10875,-0.04827 3.10875,-0.04827 0.0456,10.212926 0.0456,10.212927 1.90035,0.05018 1.90034,0.05017 0,1.490641 0,1.490641 -1.90034,0.05018 -1.90035,0.05017 -0.0478,3.668117 -0.0478,3.668116 -1.94095,0 -1.94096,0 0,-3.712311 z m 0,-15.594229 c 0,-7.496334 -0.0374,-8.836462 -0.24059,-8.617863 -0.33505,0.360492 -10.18923,17.115366 -10.18923,17.324565 0,0.104991 1.99444,0.170013 5.21491,0.170013 l 5.21491,0 0,-8.876715 z"
           id="path4690"
           inkscape:connector-curvature="0"
           transform="translate(154.47425,569.03824)" />
      </g>
    </g>
  </g>
</svg>
