<?xml version="1.0" encoding="UTF-8" standalone="no"?>
<!-- Created with Inkscape (http://www.inkscape.org/) -->

<svg
   xmlns:dc="http://purl.org/dc/elements/1.1/"
   xmlns:cc="http://creativecommons.org/ns#"
   xmlns:rdf="http://www.w3.org/1999/02/22-rdf-syntax-ns#"
   xmlns:svg="http://www.w3.org/2000/svg"
   xmlns="http://www.w3.org/2000/svg"
   xmlns:sodipodi="http://sodipodi.sourceforge.net/DTD/sodipodi-0.dtd"
   xmlns:inkscape="http://www.inkscape.org/namespaces/inkscape"
   width="350.02078"
   height="350.02142"
   id="svg3434"
   version="1.1"
   inkscape:version="0.91 r13725"
   sodipodi:docname="newLogo.svg"
   inkscape:export-filename="C:\Users\Bryan\Documents\Robotics\Autonomous Notebook\newLogo.png"
   inkscape:export-xdpi="90"
   inkscape:export-ydpi="90">
  <defs
     id="defs3436" />
  <sodipodi:namedview
     id="base"
     pagecolor="#ffffff"
     bordercolor="#666666"
     borderopacity="1.0"
     inkscape:pageopacity="0.0"
     inkscape:pageshadow="2"
     inkscape:zoom="0.35"
     inkscape:cx="122.57695"
     inkscape:cy="-329.68727"
     inkscape:document-units="px"
     inkscape:current-layer="layer1"
     showgrid="false"
     fit-margin-top="0"
     fit-margin-left="0"
     fit-margin-right="0"
     fit-margin-bottom="0"
     inkscape:window-width="1920"
     inkscape:window-height="1017"
     inkscape:window-x="-8"
     inkscape:window-y="-8"
     inkscape:window-maximized="1"
     inkscape:snap-bbox="true"
     inkscape:bbox-nodes="true"
     inkscape:snap-bbox-midpoints="true"
     inkscape:snap-bbox-edge-midpoints="true"
     inkscape:object-paths="false"
     inkscape:snap-intersection-paths="false"
     inkscape:object-nodes="false"
     inkscape:snap-midpoints="false"
     inkscape:snap-smooth-nodes="false"
     inkscape:snap-center="true"
     inkscape:snap-page="true" />
  <metadata
     id="metadata3439">
    <rdf:RDF>
      <cc:Work
         rdf:about="">
        <dc:format>image/svg+xml</dc:format>
        <dc:type
           rdf:resource="http://purl.org/dc/dcmitype/StillImage" />
        <dc:title />
      </cc:Work>
    </rdf:RDF>
  </metadata>
  <g
     inkscape:label="Layer 1"
     inkscape:groupmode="layer"
     id="layer1"
     transform="translate(-134.18653,-340.06999)">
    <g
       id="g4650"
       transform="translate(-507.83633,-207.85701)">
      <ellipse
         id="path55521-1-3-8"
         style="color:#000000;display:inline;overflow:visible;visibility:visible;fill:#f5f5f5;fill-opacity:1;fill-rule:nonzero;stroke:none;stroke-width:5;marker:none;enable-background:accumulate"
         cx="817.04364"
         cy="722.94849"
         rx="175"
         ry="174.99944" />
      <g
         transform="translate(-14.299689,352.72137)"
         id="g4636">
        <path
           style="color:#000000;display:inline;overflow:visible;visibility:visible;fill:#141414;fill-opacity:1;fill-rule:nonzero;stroke:none;stroke-width:1.5;marker:none;enable-background:accumulate"
           d="m 669.96661,371.52364 0,-6.69552 16.43327,0 16.43328,0 0,6.69552 0,6.69554 -16.43328,0 -16.43327,0 0,-6.69554 z"
           id="path4646-2-3"
           inkscape:connector-curvature="0" />
        <path
           style="color:#000000;display:inline;overflow:visible;visibility:visible;fill:#141414;fill-opacity:1;fill-rule:nonzero;stroke:none;stroke-width:1.5;marker:none;enable-background:accumulate"
           d="m 825.62125,225.93557 0,-16.44599 7.05951,0 7.05951,0 0,16.44599 0,16.44599 -7.05951,0 -7.05951,0 0,-16.44599 z"
           id="path4652-2-9"
           inkscape:connector-curvature="0" />
        <path
           style="color:#000000;display:inline;overflow:visible;visibility:visible;fill:#141414;fill-opacity:1;fill-rule:nonzero;stroke:none;stroke-width:1.5;marker:none;enable-background:accumulate"
           d="m 962.56328,371.51999 0,-6.66562 16.49301,0 16.49302,0 0,6.66562 0,6.66561 -16.49302,0 -16.49301,0 0,-6.66561 z"
           id="path4658-8-2"
           inkscape:connector-curvature="0" />
        <path
           style="color:#000000;display:inline;overflow:visible;visibility:visible;fill:#141414;fill-opacity:1;fill-rule:nonzero;stroke:none;stroke-width:1.5;marker:none;enable-background:accumulate"
           d="m 825.62125,517.1044 0,-16.44599 7.05951,0 7.05951,0 0,16.44599 0,16.44599 -7.05951,0 -7.05951,0 0,-16.44599 z"
           id="path4664-18-3"
           inkscape:connector-curvature="0" />
        <path
           style="color:#000000;display:inline;overflow:visible;visibility:visible;fill:#141414;fill-opacity:1;fill-rule:nonzero;stroke:none;stroke-width:1.5;marker:none;enable-background:accumulate"
           d="m 695.79536,442.35462 6.9282,-4 3.52976,6.11371 3.52975,6.11372 -6.9282,4 -6.9282,4 -3.52976,-6.11372 -3.52975,-6.11371 6.9282,-4 z"
           id="path4664-18-3-3"
           inkscape:connector-curvature="0" />
        <path
           style="color:#000000;display:inline;overflow:visible;visibility:visible;fill:#141414;fill-opacity:1;fill-rule:nonzero;stroke:none;stroke-width:1.5;marker:none;enable-background:accumulate"
           d="m 761.15761,234.12081 4,6.9282 -6.11371,3.52976 -6.11372,3.52975 -4,-6.9282 -4,-6.9282 6.11372,-3.52976 6.11371,-3.52975 4,6.9282 z"
           id="path4664-18-3-3-8"
           inkscape:connector-curvature="0" />
        <path
           style="color:#000000;display:inline;overflow:visible;visibility:visible;fill:#141414;fill-opacity:1;fill-rule:nonzero;stroke:none;stroke-width:1.5;marker:none;enable-background:accumulate"
           d="m 915.92623,502.24042 4,6.9282 -6.11372,3.52976 -6.11371,3.52975 -4,-6.9282 -4,-6.9282 6.11371,-3.52976 6.11372,-3.52975 4,6.9282 z"
           id="path4664-18-3-3-8-3"
           inkscape:connector-curvature="0" />
        <path
           style="color:#000000;display:inline;overflow:visible;visibility:visible;fill:#141414;fill-opacity:1;fill-rule:nonzero;stroke:none;stroke-width:1.5;marker:none;enable-background:accumulate"
           d="m 962.58385,288.32421 6.9282,-4 3.52976,6.11372 3.52975,6.11371 -6.9282,4 -6.9282,4 -3.52976,-6.11371 -3.52975,-6.11372 6.9282,-4 z"
           id="path4664-18-3-3-7"
           inkscape:connector-curvature="0" />
        <path
           style="color:#000000;display:inline;overflow:visible;visibility:visible;fill:#141414;fill-opacity:1;fill-rule:nonzero;stroke:none;stroke-width:1.5;marker:none;enable-background:accumulate"
           d="m 749.56217,501.34587 4,-6.9282 6.11371,3.52975 6.11372,3.52976 -4,6.9282 -4,6.9282 -6.11372,-3.52975 -6.11371,-3.52976 4,-6.9282 z"
           id="path4664-18-3-3-6"
           inkscape:connector-curvature="0" />
        <path
           style="color:#000000;display:inline;overflow:visible;visibility:visible;fill:#141414;fill-opacity:1;fill-rule:nonzero;stroke:none;stroke-width:1.5;marker:none;enable-background:accumulate"
           d="m 702.05063,288.32898 6.92821,4 -3.52976,6.11371 -3.52975,6.11372 -6.92821,-4 -6.9282,-4 3.52975,-6.11372 3.52976,-6.11371 6.9282,4 z"
           id="path4664-18-3-3-8-6"
           inkscape:connector-curvature="0" />
        <path
           style="color:#000000;display:inline;overflow:visible;visibility:visible;fill:#141414;fill-opacity:1;fill-rule:nonzero;stroke:none;stroke-width:1.5;marker:none;enable-background:accumulate"
           d="m 970.14401,443.14307 6.9282,4 -3.52975,6.11372 -3.52976,6.11371 -6.9282,-4 -6.92821,-4 3.52976,-6.11371 3.52975,-6.11372 6.92821,4 z"
           id="path4664-18-3-3-8-3-3"
           inkscape:connector-curvature="0" />
        <path
           style="color:#000000;display:inline;overflow:visible;visibility:visible;fill:#141414;fill-opacity:1;fill-rule:nonzero;stroke:none;stroke-width:1.5;marker:none;enable-background:accumulate"
           d="m 903.59257,234.55738 4,-6.9282 6.11372,3.52975 6.11371,3.52976 -4,6.9282 -4,6.9282 -6.11371,-3.52975 -6.11372,-3.52976 4,-6.9282 z"
           id="path4664-18-3-3-7-0"
           inkscape:connector-curvature="0" />
      </g>
      <ellipse
         ry="174.69089"
         rx="174.69058"
         id="path5752-1-6-2-8-1"
         style="display:inline;opacity:0.8982301;fill:#000000;fill-opacity:0;stroke:#000000;stroke-width:0.61796707;stroke-miterlimit:4;stroke-dasharray:none;stroke-opacity:1"
         cx="817.04364"
         cy="722.94855" />
      <g
         transform="matrix(1.0036188,0,0,1.0007573,434.15806,815.96295)"
         id="g55728-3-3-2">
        <path
           style="color:#000000;display:inline;overflow:visible;visibility:visible;fill:#00aeef;fill-opacity:1;fill-rule:nonzero;stroke:none;stroke-width:5;marker:none;enable-background:accumulate"
           d="m 380.78068,-2.0439402 c 0,-0.205186 -1.12461,-0.355136 -2.66354,-0.355136 -1.53894,0 -2.66355,-0.14995 -2.66355,-0.355135 0,-0.195333 -0.55935,-0.355146 -1.24298,-0.355146 -0.68365,0 -1.24299,-0.159814 -1.24299,-0.355136 0,-0.195332 -0.47945,-0.355136 -1.06542,-0.355136 -0.58598,0 -1.06542,-0.159813 -1.06542,-0.355146 0,-0.195322 -0.47944,-0.355136 -1.06542,-0.355136 -0.58597,0 -1.06541,-0.159812 -1.06541,-0.355144 0,-0.195323 -0.31963,-0.355136 -0.71029,-0.355136 -0.39064,0 -0.71027,-0.159814 -0.71027,-0.355136 0,-0.195332 -0.31962,-0.355146 -0.71028,-0.355146 -0.39066,0 -0.71049,-0.119856 -0.71074,-0.266349 -2.6e-4,-0.146495 -1.03904,-0.740317 -2.30841,-1.319613 -1.26936,-0.579287 -2.30793,-1.178582 -2.30793,-1.331766 0,-0.153184 -0.28435,-0.278524 -0.63189,-0.278524 -0.34752,0 -0.86224,-0.319617 -1.14381,-0.710272 -0.28157,-0.3906538 -0.63943,-0.7102808 -0.79526,-0.7102808 -0.15582,0 -1.30927,-0.99883 -2.56322,-2.219621 -1.25396,-1.220791 -2.7449,-2.619145 -3.31324,-3.107465 -0.56832,-0.488321 -1.32099,-1.447192 -1.6726,-2.130835 -0.35161,-0.683643 -0.8964,-1.48271 -1.21064,-1.775699 -0.31425,-0.292988 -0.79703,-0.972191 -1.07287,-1.50934 -0.27583,-0.537149 -0.63431,-0.976631 -0.79664,-0.976631 -0.16231,0 -0.29512,-0.23972 -0.29512,-0.532709 0,-0.292988 -0.15982,-0.532708 -0.35514,-0.532708 -0.19533,0 -0.35514,-0.319627 -0.35514,-0.710282 0,-0.390654 -0.15982,-0.710271 -0.35514,-0.710271 -0.19533,0 -0.35514,-0.319627 -0.35514,-0.710282 0,-0.390654 -0.15981,-0.710281 -0.35514,-0.710281 -0.19532,0 -0.35514,-0.399534 -0.35514,-0.887845 0,-0.48832 -0.15981,-0.887854 -0.35513,-0.887854 -0.19533,0 -0.35514,-0.399524 -0.35514,-0.887844 0,-0.488311 -0.15189,-0.887845 -0.33751,-0.887845 -0.18562,0 -0.44639,-0.962457 -0.57949,-2.13879 -0.13308,-1.176322 -0.38074,-2.224533 -0.55033,-2.329361 -0.16961,-0.104818 -0.30836,-0.900309 -0.30836,-1.767743 0,-0.867443 -0.15982,-1.577172 -0.35515,-1.577172 -0.48146,0 -0.48146,-13.020158 0,-13.317716 0.19533,-0.120719 0.35515,-0.849302 0.35515,-1.619089 0,-0.769778 0.14118,-1.39959 0.31376,-1.39959 0.17257,0 0.42501,-1.038788 0.56097,-2.308407 0.13597,-1.269619 0.3943,-2.308408 0.57409,-2.308408 0.17977,0 0.32687,-0.319616 0.32687,-0.710271 0,-0.390654 0.15981,-0.710282 0.35514,-0.710282 0.19532,0 0.35513,-0.319627 0.35513,-0.710281 0,-0.390655 0.15982,-0.710271 0.35514,-0.710271 0.19533,0 0.35514,-0.399535 0.35514,-0.887855 0,-0.488311 0.15981,-0.887845 0.35514,-0.887845 0.19532,0 0.35514,-0.319627 0.35514,-0.710281 0,-0.390654 0.15981,-0.710272 0.35514,-0.710272 0.19532,0 0.35514,-0.209585 0.35514,-0.465749 0,-0.256154 0.31962,-0.808822 0.71027,-1.228134 0.39066,-0.419323 0.71028,-1.008794 0.71028,-1.309959 0,-0.301154 0.14042,-0.547555 0.31205,-0.547555 0.17164,0 0.51066,-0.479441 0.75336,-1.065418 0.24273,-0.585976 0.57098,-1.065417 0.72944,-1.065417 0.15847,0 0.40166,-0.359576 0.54043,-0.799057 0.13877,-0.439493 0.54907,-1.057532 0.91178,-1.373433 0.36271,-0.3159 0.65948,-0.755383 0.65948,-0.976631 0,-0.221248 0.15981,-0.402266 0.35514,-0.402266 0.19532,0 0.35513,-0.165137 0.35513,-0.366979 0,-0.201841 0.51939,-0.922429 1.15421,-1.60131 0.6348,-0.678882 1.79344,-1.955893 2.57475,-2.837791 0.78132,-0.881907 2.09976,-2.314585 2.9299,-3.183726 0.83014,-0.869141 1.50934,-1.813417 1.50934,-2.098389 0,-0.284963 0.27967,-0.615388 0.62149,-0.734279 0.34183,-0.118891 1.18085,-0.856706 1.86449,-1.639601 1.12349,-1.286596 4.28309,-4.497693 6.83658,-6.947974 1.04263,-1.000497 0.95941,-1.382925 -0.56764,-2.608578 -0.36504,-0.292988 -1.64522,-1.530403 -2.84483,-2.749798 -4.6754,-4.752512 -5.21156,-5.280242 -6.58735,-6.483822 -0.78146,-0.68364 -1.42819,-1.44275 -1.43721,-1.68691 -0.009,-0.24416 -0.16541,-0.44392 -0.34757,-0.44392 -0.18216,0 -0.42674,-0.30102 -0.54351,-0.66891 -0.24959,-0.78642 -2.18085,-2.88249 -2.65583,-2.88249 -0.18046,0 -0.43209,-0.32759 -0.55918,-0.72799 -0.12708,-0.4004 -0.7771,-1.27404 -1.44448,-1.94143 -0.66739,-0.66738 -1.21343,-1.37856 -1.21343,-1.58041 0,-0.20184 -0.15982,-0.36697 -0.35514,-0.36697 -0.19534,0 -0.35515,-0.23972 -0.35515,-0.53271 0,-0.29299 -0.14249,-0.53271 -0.31663,-0.53271 -0.17415,0 -0.41692,-0.39954 -0.53948,-0.88785 -0.12255,-0.48832 -0.3602,-0.88785 -0.52811,-0.88785 -0.16792,0 -0.50389,-0.47943 -0.74662,-1.06542 -0.2427,-0.58597 -0.58172,-1.06542 -0.75336,-1.06542 -0.17163,0 -0.31205,-0.31961 -0.31205,-0.71026 0,-0.39066 -0.13016,-0.71029 -0.28925,-0.71029 -0.36334,0 -1.84158,-2.73511 -1.84158,-3.40738 0,-0.27454 -0.15982,-0.49916 -0.35514,-0.49916 -0.19533,0 -0.35514,-0.31962 -0.35514,-0.71026 0,-0.39065 -0.15981,-0.71028 -0.35514,-0.71028 -0.19532,0 -0.35514,-0.31963 -0.35514,-0.71029 0,-0.39065 -0.15981,-0.71027 -0.35513,-0.71027 -0.19533,0 -0.35514,-0.47944 -0.35514,-1.06542 0,-0.58598 -0.1414,-1.06541 -0.31422,-1.06541 -0.17283,0 -0.42405,-0.87898 -0.55827,-1.95327 -0.13422,-1.0743 -0.39236,-1.95326 -0.57363,-1.95326 -0.18126,0 -0.32957,-0.79907 -0.32957,-1.7757 0,-0.97663 -0.15982,-1.7757 -0.35515,-1.7757 -0.2089,0 -0.35514,-1.24299 -0.35514,-3.01869 0,-1.77569 -0.14623,-3.01867 -0.35514,-3.01867 -0.19533,0 -0.35514,-0.87898 -0.35514,-1.95327 0,-1.0743 0.15981,-1.95326 0.35514,-1.95326 0.20891,0 0.35514,-1.243 0.35514,-3.01869 0,-1.66027 0.14373,-3.01868 0.31938,-3.01868 0.17567,0 0.40656,-0.6792 0.51313,-1.50935 0.36468,-2.84095 1.07826,-5.94857 1.36594,-5.94857 0.15814,0 0.28753,-0.31963 0.28753,-0.71028 0,-0.39066 0.15981,-0.71028 0.35514,-0.71028 0.19532,0 0.35513,-0.31963 0.35513,-0.71028 0,-0.39066 0.15982,-0.71028 0.35514,-0.71028 0.19533,0 0.35514,-0.31961 0.35514,-0.71027 0,-0.39065 0.15981,-0.71028 0.35514,-0.71028 0.19532,0 0.35514,-0.23972 0.35514,-0.53272 0,-0.29298 0.15981,-0.5327 0.35514,-0.5327 0.19532,0 0.35514,-0.25551 0.35514,-0.5678 0,-0.31228 0.47944,-1.01565 1.06542,-1.56304 0.58597,-0.54738 1.06541,-1.1781 1.06541,-1.40162 0,-0.35011 0.69569,-1.22649 2.05148,-2.58426 3.59768,-3.60296 5.82971,-5.60287 6.25317,-5.60287 0.28929,0 0.62332,-0.30671 0.74229,-0.68158 0.14489,-0.45651 0.68048,-0.75997 1.62206,-0.91906 0.77315,-0.13062 1.4063,-0.3433 1.40699,-0.47263 7.1e-4,-0.12932 0.87909,-0.63467 1.95201,-1.12298 1.07291,-0.48832 1.9513,-1.00771 1.952,-1.15421 7e-4,-0.14649 0.32088,-0.26635 0.71154,-0.26635 0.39066,0 0.71028,-0.15982 0.71028,-0.35514 0,-0.19533 0.47943,-0.35514 1.06542,-0.35514 0.58598,0 1.06542,-0.15981 1.06542,-0.35514 0,-0.19532 0.63924,-0.35514 1.42055,-0.35514 0.78131,0 1.42056,-0.15981 1.42056,-0.35513 0,-0.19533 0.71916,-0.35515 1.59813,-0.35515 0.87896,0 1.59812,-0.15981 1.59812,-0.35513 0,-0.22549 2.72273,-0.35514 7.45793,-0.35514 4.73518,0 7.45792,0.12965 7.45792,0.35514 0,0.19532 0.55934,0.35513 1.24298,0.35513 0.68364,0 1.24299,0.15982 1.24299,0.35515 0,0.19532 0.63925,0.35513 1.42055,0.35513 0.78131,0 1.42057,0.15982 1.42057,0.35514 0,0.19533 0.47944,0.35514 1.06541,0.35514 0.58598,0 1.06542,0.15981 1.06542,0.35514 0,0.19532 0.23972,0.35514 0.53271,0.35514 0.29298,0 0.5327,0.15981 0.5327,0.35514 0,0.19532 0.22461,0.35514 0.49915,0.35514 0.49793,0 3.42569,1.40827 3.76253,1.8098 0.0976,0.11642 0.61705,0.31923 1.1542,0.45069 0.53715,0.13145 0.97663,0.39577 0.97663,0.58738 0,0.1916 0.20445,0.34838 0.45431,0.34838 0.24987,0 0.68468,0.31963 0.96624,0.71028 0.28157,0.39066 0.71934,0.71028 0.97284,0.71028 0.37443,0 2.21229,1.63753 5.4953,4.89632 1.48479,1.47383 2.66477,2.89293 3.09185,3.7184 0.27717,0.53573 0.63675,0.97403 0.79907,0.97403 0.16231,0 0.29513,0.23971 0.29513,0.53272 0,0.29298 0.1598,0.5327 0.35513,0.5327 0.19532,0 0.35513,0.23972 0.35513,0.53271 0,0.293 0.15982,0.53272 0.35515,0.53272 0.19533,0 0.35514,0.23971 0.35514,0.5327 0,0.29299 0.15982,0.53271 0.35514,0.53271 0.19533,0 0.35514,0.31962 0.35514,0.71027 0,0.39066 0.1598,0.71028 0.35513,0.71028 0.19532,0 0.35514,0.31963 0.35514,0.71028 0,0.39066 0.14203,0.71028 0.31562,0.71028 0.17359,0 0.42781,0.59807 0.56495,1.32907 0.13713,0.73098 0.35339,1.49009 0.48056,1.6869 0.4513,0.69839 1.11424,2.8556 1.1195,3.64288 0.003,0.43949 0.16516,0.79906 0.36049,0.79906 0.19532,0 0.35513,0.62983 0.35513,1.3996 0,0.76978 0.15982,1.49837 0.35515,1.6191 0.19532,0.12072 0.35513,1.64837 0.35513,3.39478 0,1.8801 0.14487,3.17529 0.35514,3.17529 0.19534,0 0.35515,0.55934 0.35515,1.24298 0,0.68365 -0.15981,1.243 -0.35515,1.243 -0.2089,0 -0.35514,1.24298 -0.35514,3.01867 0,1.7757 -0.14623,3.01869 -0.35513,3.01869 -0.19533,0 -0.35515,0.63925 -0.35515,1.42055 0,0.78131 -0.15981,1.42055 -0.35513,1.42055 -0.19533,0 -0.35513,0.55935 -0.35513,1.243 0,0.68363 -0.15982,1.24298 -0.35516,1.24298 -0.19532,0 -0.35513,0.3901 -0.35513,0.8669 0,0.47678 -0.1459,0.95706 -0.32424,1.06727 -0.17832,0.11021 -0.43209,0.83881 -0.56393,1.61908 -0.13183,0.78029 -0.38544,1.41871 -0.5636,1.41871 -0.17816,0 -0.32393,0.23971 -0.32393,0.5327 0,0.293 -0.15982,0.53272 -0.35514,0.53272 -0.19533,0 -0.35513,0.31961 -0.35513,0.71027 0,0.39065 -0.15981,0.71027 -0.35514,0.71027 -0.19532,0 -0.35514,0.31963 -0.35514,0.71029 0,0.39065 -0.15981,0.71027 -0.35514,0.71027 -0.19533,0 -0.35515,0.31963 -0.35515,0.71028 0,0.39066 -0.13415,0.71029 -0.29812,0.71029 -0.16398,0 -0.4745,0.38706 -0.69006,0.86015 -0.21555,0.4731 -0.68069,1.20568 -1.03364,1.62797 -0.35293,0.42229 -1.0011,1.19386 -1.44035,1.71459 -0.43924,0.52074 -0.79882,1.14124 -0.79906,1.37889 -2.3e-4,0.23764 -0.55978,0.99142 -1.24343,1.67507 -0.68363,0.68364 -1.24297,1.42933 -1.24297,1.65709 0,0.4553 -1.3513,1.74041 -1.83004,1.74041 -0.16544,0 -0.30251,0.19976 -0.3046,0.44392 -0.004,0.43918 -2.15341,3 -4.24819,5.06074 -2.30523,2.26773 -6.27516,6.258137 -7.32636,7.364146 -0.60597,0.637546 -1.44499,1.394225 -1.86449,1.681507 -1.03112,0.706124 -1.03112,2.510902 0,3.217026 0.4195,0.287272 1.25852,1.04395 1.86449,1.681507 1.22524,1.289117 5.60658,5.683448 7.40048,7.422433 1.32843,1.28777 3.22138,3.583139 3.43439,4.164495 0.15358,0.419171 0.91572,1.127966 2.13091,1.981779 0.40887,0.287273 0.74341,0.742545 0.74341,1.011718 0,0.269161 0.457,0.916301 1.01556,1.438071 0.55857,0.52178 1.14078,1.345006 1.2938,1.829398 0.15301,0.484393 0.57498,1.139177 0.93769,1.455077 0.3627,0.315901 0.65947,0.720105 0.65947,0.898231 0,0.178126 0.31963,0.554235 0.71028,0.835802 0.39066,0.281578 0.71028,0.796295 0.71028,1.143827 0,0.347533 0.15981,0.631872 0.35514,0.631872 0.19533,0 0.35515,0.284349 0.35515,0.631882 0,0.347532 0.31961,0.862249 0.71026,1.143817 0.39067,0.281567 0.71029,0.796286 0.71029,1.143817 0,0.347532 0.15982,0.631881 0.35514,0.631881 0.19533,0 0.35514,0.319618 0.35514,0.710272 0,0.390654 0.1598,0.710281 0.35513,0.710281 0.19532,0 0.35514,0.239721 0.35514,0.532709 0,0.292988 0.13924,0.532709 0.3094,0.532709 0.17015,0 0.41538,0.799058 0.54492,1.775698 0.12956,0.976631 0.38988,1.775689 0.57846,1.775689 0.18861,0 0.34292,0.479441 0.34292,1.065418 0,0.585986 0.14168,1.065417 0.31482,1.065417 0.33195,0 0.67049,1.309678 0.98686,3.817747 0.10472,0.830136 0.33411,1.509339 0.50978,1.509339 0.17565,0 0.31937,1.038788 0.31937,2.308407 0,1.387636 0.14999,2.308408 0.37602,2.308408 0.75952,0 -0.007,10.341667 -1.07902,14.560706 -0.22336,0.878965 -0.49432,2.037608 -0.60214,2.574756 -0.10781,0.537149 -0.33771,0.976631 -0.51087,0.976631 -0.17314,0 -0.31482,0.390102 -0.31482,0.866891 0,0.476789 -0.1459,0.957063 -0.32424,1.067276 -0.17832,0.110212 -0.43209,0.838805 -0.56393,1.619089 -0.13183,0.780284 -0.38544,1.418695 -0.5636,1.418695 -0.17816,0 -0.32393,0.23972 -0.32393,0.532708 0,0.292989 -0.15982,0.532709 -0.35514,0.532709 -0.19533,0 -0.35513,0.28434 -0.35513,0.631881 0,0.347532 -0.31963,0.862242 -0.71028,1.143819 -0.39066,0.281567 -0.71029,0.723641 -0.71029,0.982386 0,0.258746 -0.39953,0.869985 -0.88784,1.358295 -0.48832,0.488321 -0.88785,1.033133 -0.88785,1.210706 0,0.177573 -0.41733,0.711849 -0.92739,1.187292 -1.26119,1.175569 -1.30699,1.221856 -3.30538,3.340737 -0.96717,1.025459 -1.97329,1.864475 -2.23585,1.864475 -0.26255,0 -0.70773,0.319627 -0.98931,0.7102808 -0.28156,0.390655 -0.79628,0.710272 -1.14381,0.710272 -0.34754,0 -0.63187,0.15677 -0.63187,0.348376 0,0.191605 -0.39953,0.448652 -0.88786,0.57121 -0.4883,0.122557 -0.88784,0.365322 -0.88784,0.539479 0,0.174147 -0.31962,0.316634 -0.71028,0.316634 -0.39065,0 -0.71027,0.159814 -0.71027,0.355136 0,0.195332 -0.31963,0.355145 -0.71028,0.355145 -0.39066,0 -0.71029,0.159814 -0.71029,0.355136 0,0.195332 -0.31963,0.355136 -0.71027,0.355136 -0.39066,0 -0.71028,0.159814 -0.71028,0.355146 0,0.195322 -0.3901,0.355136 -0.86689,0.355136 -0.47679,0 -0.96565,0.159813 -1.08638,0.355136 -0.12071,0.195332 -0.60958,0.355144 -1.08637,0.355144 -0.47679,0 -0.8669,0.159814 -0.8669,0.355136 0,0.195333 -0.47943,0.355146 -1.06541,0.355146 -0.58598,0 -1.06542,0.159804 -1.06542,0.355136 0,0.195322 -0.79906,0.355136 -1.7757,0.355136 -0.97663,0 -1.77568,0.159813 -1.77568,0.355146 0,0.205185 -1.12461,0.355135 -2.66355,0.355135 -1.53894,0 -2.66354,0.14995 -2.66354,0.355136 0,0.205196 -1.12461,0.355146 -2.66355,0.355146 -1.53894,0 -2.66354,-0.14995 -2.66354,-0.355146 z m 7.28035,-17.4018118 c 0.12072,-0.195332 0.84931,-0.355146 1.61909,-0.355146 0.76977,0 1.39959,-0.159813 1.39959,-0.355135 0,-0.195333 0.47944,-0.355136 1.06542,-0.355136 0.58599,0 1.06541,-0.159814 1.06541,-0.355146 0,-0.195322 0.2306,-0.355136 0.51242,-0.355136 0.58163,0 3.15475,-1.429534 3.33493,-1.852774 0.0651,-0.152933 0.38941,-0.278061 0.72066,-0.278061 0.33126,0 0.83266,-0.319627 1.11422,-0.710282 0.28157,-0.390654 0.6491,-0.710271 0.81672,-0.710271 0.27694,0 1.99732,-1.711422 4.06645,-4.045273 0.43948,-0.495714 0.79906,-1.14673 0.79906,-1.4467 0,-0.299969 0.15981,-0.545395 0.35514,-0.545395 0.19533,0 0.35514,-0.319627 0.35514,-0.710281 0,-0.390655 0.15982,-0.710282 0.35514,-0.710282 0.19533,0 0.35514,-0.319617 0.35514,-0.710271 0,-0.390655 0.11986,-0.711528 0.26635,-0.713055 0.4299,-0.004 1.15421,-1.83006 1.15421,-2.909139 0,-0.547043 0.15981,-0.994621 0.35513,-0.994621 0.22236,0 0.35514,-2.183038 0.35514,-5.838832 0,-3.50948 -0.14167,-5.926402 -0.35514,-6.058331 -0.19532,-0.12072 -0.35513,-0.769395 -0.35513,-1.441517 0,-0.672111 -0.15982,-1.222026 -0.35514,-1.222026 -0.19534,0 -0.35515,-0.399525 -0.35515,-0.887845 0,-0.48832 -0.15981,-0.887844 -0.35513,-0.887844 -0.19533,0 -0.35514,-0.479441 -0.35514,-1.065418 0,-0.585986 -0.15981,-1.065416 -0.35514,-1.065416 -0.19532,0 -0.35514,-0.319628 -0.35514,-0.710282 0,-0.390655 -0.15981,-0.710281 -0.35514,-0.710281 -0.19533,0 -0.35514,-0.319618 -0.35514,-0.710272 0,-0.390654 -0.15982,-0.710282 -0.35514,-0.710282 -0.19532,0 -0.35513,-0.239719 -0.35513,-0.532708 0,-0.292988 -0.15677,-0.532709 -0.34838,-0.532709 -0.19161,0 -0.45733,-0.434128 -0.59051,-0.964738 -0.13317,-0.530609 -0.53575,-1.279894 -0.89461,-1.665084 -0.35887,-0.3852 -0.65248,-0.874666 -0.65248,-1.087707 0,-0.213042 -0.31963,-0.617708 -0.71028,-0.899276 -0.39065,-0.281577 -0.71028,-0.796285 -0.71028,-1.143826 0,-0.347533 -0.13536,-0.631872 -0.3008,-0.631872 -0.47874,0 -1.83003,-1.285109 -1.83003,-1.740412 0,-0.227757 -0.51939,-0.965953 -1.1542,-1.640434 -0.63482,-0.674482 -2.11308,-2.272648 -3.28504,-3.551468 -2.47003,-2.695264 -3.5148,-3.765614 -6.71914,-6.883748 -1.2853,-1.250724 -2.33691,-2.409368 -2.33691,-2.574766 0,-0.573229 -1.09505,-0.296876 -1.97467,0.498345 -2.48594,2.247405 -7.03597,6.993286 -11.60251,12.101917 -0.72868,0.81519 -1.80742,1.997007 -2.39718,2.626277 -0.58978,0.62926 -1.07232,1.273185 -1.07232,1.430939 0,0.157754 -0.31962,0.5172 -0.71028,0.798767 -0.39066,0.281567 -0.71047,0.67642 -0.71071,0.877458 -2.4e-4,0.201037 -0.3952,0.824552 -0.8777,1.385586 -0.48249,0.561036 -0.9725,1.320145 -1.08891,1.686913 -0.11641,0.366768 -0.36069,0.666848 -0.54286,0.666848 -0.18217,0 -0.3312,0.251131 -0.3312,0.558082 0,0.306941 -0.23973,0.797792 -0.53271,1.09078 -0.29301,0.292988 -0.53272,0.840915 -0.53272,1.217617 0,0.376702 -0.15981,0.684919 -0.35514,0.684919 -0.19532,0 -0.35513,0.399523 -0.35513,0.887844 0,0.48832 -0.15982,0.887844 -0.35514,0.887844 -0.19533,0 -0.35514,0.319627 -0.35514,0.710281 0,0.390655 -0.15982,0.710282 -0.35515,0.710282 -0.19532,0 -0.35513,0.479431 -0.35513,1.065417 0,0.585976 -0.15981,1.065418 -0.35514,1.065418 -0.19532,0 -0.35514,0.709719 -0.35514,1.577162 0,0.867444 -0.15981,1.675933 -0.35513,1.796652 -0.47322,0.292466 -0.47322,7.99064 0,7.99064 0.19532,0 0.35513,0.799057 0.35513,1.775688 0,0.976631 0.15982,1.775699 0.35514,1.775699 0.19533,0 0.35514,0.479441 0.35514,1.065418 0,0.585976 0.15981,1.065416 0.35513,1.065416 0.19533,0 0.35515,0.239721 0.35515,0.532709 0,0.292989 0.15981,0.532709 0.35514,0.532709 0.19532,0 0.35514,0.319627 0.35514,0.710282 0,0.390654 0.15981,0.710271 0.35513,0.710271 0.19533,0 0.35514,0.294776 0.35514,0.655045 0,0.360268 0.39934,1.119378 0.88742,1.686912 0.48808,0.567524 0.89239,1.191681 0.89847,1.387003 0.006,0.195333 0.49676,0.75468 1.0904,1.24299 0.59365,0.488321 1.62232,1.407244 2.28595,2.042049 0.66363,0.634814 1.41636,1.154203 1.67274,1.154203 0.25638,0 0.69652,0.319627 0.97808,0.710282 0.28157,0.390654 0.71638,0.710281 0.96625,0.710281 0.24987,0 0.45431,0.159804 0.45431,0.355136 0,0.195322 0.31962,0.355136 0.71028,0.355136 0.39065,0 0.71028,0.159813 0.71028,0.355146 0,0.195322 0.31963,0.355136 0.71027,0.355136 0.39066,0 0.71029,0.159814 0.71029,0.355136 0,0.195332 0.47944,0.355146 1.06541,0.355146 0.58598,0 1.06542,0.159803 1.06542,0.355136 0,0.195322 0.62982,0.355135 1.3996,0.355135 0.76978,0 1.49837,0.159814 1.61908,0.355146 0.1264,0.204513 2.00916,0.355136 4.43924,0.355136 2.43008,0 4.31283,-0.150623 4.43924,-0.355136 z m -3.72896,-86.630028 c 0,-0.37748 0.27967,-0.78361 0.6215,-0.9025 0.34182,-0.11889 1.18082,-0.85671 1.86447,-1.6396 0.68364,-0.78289 2.24069,-2.41438 3.46008,-3.62552 1.21941,-1.21114 2.89744,-2.87775 3.72896,-3.70356 2.31361,-2.29773 3.10999,-3.23168 3.10999,-3.64718 0,-0.20882 0.51939,-0.92032 1.15422,-1.58111 1.96324,-2.04359 3.10744,-3.3926 3.10789,-3.66418 2.4e-4,-0.14312 0.39977,-0.72455 0.88785,-1.29209 0.48808,-0.56753 0.88742,-1.32664 0.88742,-1.68692 0,-0.36026 0.15981,-0.65503 0.35513,-0.65503 0.19533,0 0.35515,-0.23972 0.35515,-0.5327 0,-0.29301 0.15981,-0.53272 0.35513,-0.53272 0.19532,0 0.35514,-0.31963 0.35514,-0.71028 0,-0.39065 0.15981,-0.71027 0.35514,-0.71027 0.19533,0 0.35514,-0.31963 0.35514,-0.71029 0,-0.39064 0.13092,-0.71027 0.29094,-0.71027 0.16002,0 0.51129,-0.8092 0.7806,-1.7982 0.26933,-0.98902 0.61783,-1.87742 0.77448,-1.97423 0.15666,-0.0968 0.28482,-0.69398 0.28482,-1.32702 0,-0.63306 0.16874,-1.31975 0.375,-1.52602 0.24242,-0.24242 0.31887,-2.05677 0.21623,-5.13175 -0.17022,-5.09925 -0.47839,-7.42029 -0.98524,-7.42029 -0.17395,0 -0.31628,-0.47944 -0.31628,-1.06541 0,-0.58599 -0.15981,-1.06544 -0.35513,-1.06544 -0.19533,0 -0.35514,-0.23971 -0.35514,-0.5327 0,-0.293 -0.15981,-0.53272 -0.35514,-0.53272 -0.19532,0 -0.35514,-0.31962 -0.35514,-0.71027 0,-0.39065 -0.15981,-0.71027 -0.35514,-0.71027 -0.19533,0 -0.35514,-0.28434 -0.35514,-0.63189 0,-0.34753 -0.31962,-0.86225 -0.71027,-1.14381 -0.39065,-0.28157 -0.71028,-0.79177 -0.71028,-1.13378 0,-0.34201 -0.56022,-1.14575 -1.24492,-1.78608 -0.68469,-0.64034 -1.79806,-1.68363 -2.47413,-2.31844 -0.67608,-0.63482 -1.41557,-1.15421 -1.64333,-1.15421 -0.22776,0 -0.67257,-0.28241 -0.98847,-0.6276 -0.3159,-0.34516 -1.37344,-1.0019 -2.35007,-1.4594 -0.97663,-0.45752 -2.05319,-0.97417 -2.39237,-1.14811 -0.33916,-0.17395 -1.01836,-0.31627 -1.50934,-0.31627 -0.49096,0 -0.89266,-0.15982 -0.89266,-0.35515 0,-0.19533 -0.62982,-0.35514 -1.3996,-0.35514 -0.76978,0 -1.49836,-0.15981 -1.61908,-0.35514 -0.12251,-0.19822 -1.77939,-0.35513 -3.74993,-0.35513 -2.11686,0 -3.53043,0.1422 -3.53043,0.35513 0,0.19533 -0.71916,0.35514 -1.59812,0.35514 -0.87897,0 -1.59813,0.15981 -1.59813,0.35514 0,0.19533 -0.32214,0.35515 -0.71586,0.35515 -1.00016,0 -3.54581,0.82696 -3.54581,1.15188 0,0.14777 -0.31962,0.26866 -0.71028,0.26866 -0.39064,0 -0.71027,0.15982 -0.71027,0.35516 0,0.19532 -0.20445,0.35513 -0.45431,0.35513 -0.24987,0 -0.68469,0.31963 -0.96626,0.71028 -0.28157,0.39066 -0.7217,0.71027 -0.97807,0.71027 -0.25639,0 -1.00912,0.51939 -1.67276,1.15421 -0.66362,0.63481 -1.69564,1.55374 -2.29339,2.04204 -0.59776,0.48833 -1.35872,1.48716 -1.69104,2.21963 -0.33231,0.73247 -0.73327,1.33177 -0.891,1.33177 -0.15774,0 -0.28679,0.31963 -0.28679,0.71027 0,0.39066 -0.15982,0.71029 -0.35514,0.71029 -0.19533,0 -0.35514,0.31962 -0.35514,0.71027 0,0.39065 -0.15982,0.71027 -0.35515,0.71027 -0.19532,0 -0.35513,0.39954 -0.35513,0.88786 0,0.48831 -0.15981,0.88784 -0.35514,0.88784 -0.19532,0 -0.35514,0.63926 -0.35514,1.42057 0,0.7813 -0.15981,1.42055 -0.35513,1.42055 -0.47815,0 -0.47815,10.1811 0,10.4766 0.19532,0.12072 0.35513,0.92922 0.35513,1.79666 0,0.86745 0.15982,1.57717 0.35514,1.57717 0.19533,0 0.35514,0.39953 0.35514,0.88784 0,0.48832 0.15981,0.88786 0.35513,0.88786 0.19533,0 0.35515,0.31962 0.35515,0.71026 0,0.39066 0.15981,0.71029 0.35514,0.71029 0.19532,0 0.35514,0.39953 0.35514,0.88784 0,0.48832 0.14202,0.88785 0.31562,0.88785 0.17358,0 0.41529,0.53135 0.53713,1.18077 0.12182,0.64942 0.53914,1.52171 0.92737,1.93841 0.38822,0.41671 0.70584,0.96878 0.70584,1.22681 0,0.25804 0.31963,0.69954 0.71029,0.9811 0.39065,0.28157 0.71028,0.76101 0.71028,1.06542 0,0.30441 0.31962,0.78385 0.71027,1.06541 0.39066,0.28158 0.71028,0.65227 0.71028,0.82376 0,0.17151 0.47945,0.7597 1.06542,1.30708 0.58598,0.54738 1.06542,1.1776 1.06542,1.40046 0,0.50766 0.35358,0.93601 3.10746,3.76454 1.2208,1.25387 2.21963,2.36709 2.21963,2.47383 0,0.35981 7.2598,7.27701 7.63742,7.27701 0.20569,0 0.60434,0.31963 0.88591,0.71029 0.66295,0.91978 1.7757,0.93478 1.7757,0.0239 l 0,-1e-5 z"
           id="path55517-34-1-4"
           inkscape:connector-curvature="0" />
        <path
           style="color:#000000;display:inline;overflow:visible;visibility:visible;fill:#115c78;fill-opacity:1;fill-rule:nonzero;stroke:none;stroke-width:5;marker:none;enable-background:accumulate"
           d="m 287.1353,13.360146 c 0,-2.687482 0.092,-3.157761 0.70427,-3.5990362 0.38734,-0.279181 0.70425,-0.789538 0.70425,-1.134124 0,-0.344587 0.15846,-0.626527 0.35213,-0.626527 0.19367,0 0.35213,-0.28193 0.35213,-0.626516 0,-0.344587 0.31692,-0.854943 0.70426,-1.134124 0.38735,-0.279181 0.70426,-0.789538 0.70426,-1.134124 0,-0.344587 0.15845,-0.626527 0.35213,-0.626527 0.19367,0 0.35213,-0.316918 0.35213,-0.704262 0,-0.387344 0.15846,-0.704252 0.35213,-0.704252 0.19367,0 0.35213,-0.165093 0.35213,-0.366857 0,-0.201774 0.31495,-0.704909 0.69988,-1.118089 0.38492,-0.413169 0.79871,-1.27807104 0.91951,-1.92197804 0.12079,-0.643926 0.36045,-1.17076496 0.53258,-1.17076496 0.17211,0 0.31293,-0.28193 0.31293,-0.626517 0,-0.344587 0.31692,-0.854943 0.70426,-1.134124 0.38735,-0.279191 0.70427,-0.710318 0.70427,-0.958066 0,-0.247748 0.15845,-0.450458 0.35212,-0.450458 0.19367,0 0.35213,-0.244312 0.35213,-0.542915 0,-0.298603 0.31692,-0.883089 0.70426,-1.298848 0.38734,-0.415769 0.70426,-0.963743 0.70426,-1.217736 0,-0.253983 0.15846,-0.461792 0.35213,-0.461792 0.19367,0 0.35213,-0.316919 0.35213,-0.704263 0,-0.387344 0.15845,-0.704262 0.35213,-0.704262 0.19367,0 0.35213,-0.258714 0.35213,-0.5749148 0,-0.316212 0.29425,-0.831199 0.65388,-1.144423 0.35964,-0.313223 0.76646,-0.926035 0.90406,-1.361793 0.24894,-0.788432 0.28604,-0.792286 7.62115,-0.792286 l 7.37099,0 0,-77.996686 0,-77.996681 -4.07464,0 c -4.2064,0 -5.08072,-0.26837 -5.08072,-1.55943 0,-0.30434 -0.15846,-0.55335 -0.35213,-0.55335 -0.19368,0 -0.35214,-0.31692 -0.35214,-0.70426 0,-0.38734 -0.15845,-0.70426 -0.35212,-0.70426 -0.19367,0 -0.35213,-0.20781 -0.35213,-0.46179 0,-0.254 -0.31692,-0.80197 -0.70426,-1.21774 -0.38734,-0.41576 -0.70426,-0.92102 -0.70426,-1.12278 0,-0.20177 -0.15846,-0.36686 -0.35213,-0.36686 -0.19367,0 -0.35213,-0.28193 -0.35213,-0.62652 0,-0.34459 -0.31691,-0.85495 -0.70426,-1.13413 -0.38734,-0.27918 -0.70426,-0.78953 -0.70426,-1.13412 0,-0.34459 -0.14082,-0.62652 -0.31293,-0.62652 -0.17213,0 -0.41178,-0.52684 -0.53258,-1.17076 -0.1208,-0.64392 -0.53458,-1.50881 -0.91951,-1.92199 -0.38494,-0.41317 -0.69988,-0.91631 -0.69988,-1.11808 0,-0.20177 -0.15846,-0.36686 -0.35213,-0.36686 -0.19368,0 -0.35213,-0.3169 -0.35213,-0.70425 0,-0.38734 -0.15846,-0.70426 -0.35213,-0.70426 -0.19367,0 -0.35213,-0.20781 -0.35213,-0.46179 0,-0.254 -0.31692,-0.80197 -0.70426,-1.21774 -0.38734,-0.41576 -0.70426,-1.00024 -0.70426,-1.29885 0,-0.2986 -0.15846,-0.54291 -0.35213,-0.54291 -0.19367,0 -0.35212,-0.31692 -0.35212,-0.70426 0,-0.38735 -0.15846,-0.70427 -0.35214,-0.70427 -0.19367,0 -0.35213,-0.17948 -0.35213,-0.39885 0,-0.21938 -0.35127,-0.70353 -0.78063,-1.07589 -0.68659,-0.59548 -0.79756,-1.09885 -0.92127,-4.17883 l -0.14065,-3.50179 92.651,0 92.65101,0 0,2.2111 c 0,1.80716 -0.12866,2.30385 -0.70425,2.71871 -0.38734,0.27918 -0.70426,0.78954 -0.70426,1.13412 0,0.34459 -0.15846,0.62653 -0.35213,0.62653 -0.19367,0 -0.35213,0.31692 -0.35213,0.70426 0,0.38734 -0.15845,0.70426 -0.35213,0.70426 -0.19367,0 -0.35213,0.20271 -0.35213,0.45045 0,0.24776 -0.31691,0.67889 -0.70426,0.95807 -0.38734,0.27918 -0.70426,0.78953 -0.70426,1.13412 0,0.34459 -0.15845,0.62652 -0.35213,0.62652 -0.19366,0 -0.35212,0.28194 -0.35212,0.62653 0,0.34458 -0.30779,0.84836 -0.68398,1.1195 -0.37618,0.27113 -0.78626,1.09841 -0.91127,1.83838 -0.12502,0.73997 -0.37184,1.34541 -0.54848,1.34541 -0.17665,0 -0.32119,0.20271 -0.32119,0.45045 0,0.24775 -0.3169,0.67888 -0.70425,0.95806 -0.38734,0.27918 -0.70426,0.78954 -0.70426,1.13412 0,0.3446 -0.15846,0.62653 -0.35213,0.62653 -0.19367,0 -0.35213,0.31692 -0.35213,0.70426 0,0.38735 -0.15846,0.70426 -0.35213,0.70426 -0.19367,0 -0.35212,0.28194 -0.35212,0.62652 0,0.34459 -0.31692,0.85494 -0.70427,1.13413 -0.38734,0.27918 -0.70426,0.7103 -0.70426,0.95805 0,0.24776 -0.15846,0.45046 -0.35212,0.45046 -0.19367,0 -0.35213,0.24432 -0.35213,0.54292 0,0.29861 -0.31495,0.88097 -0.69988,1.29415 -0.38493,0.41318 -0.79871,1.27807 -0.91951,1.92199 -0.1208,0.64392 -0.36046,1.17076 -0.53258,1.17076 -0.17211,0 -0.31294,0.31691 -0.31294,0.70426 0,0.67743 -0.23475,0.70426 -6.16227,0.70426 l -6.16227,0 0,77.996681 0,77.996686 2.99311,0 c 2.75835,0 2.9931,0.05528 2.9931,0.704252 0,0.387343 0.15846,0.704262 0.35212,0.704262 0.19368,0 0.35214,0.237689 0.35214,0.528194 0,0.290505 0.15846,0.528194 0.35212,0.528194 0.19368,0 0.35214,0.28194 0.35214,0.626527 0,0.344586 0.31691,0.8549428 0.70425,1.1341238 0.38735,0.279181 0.70427,0.789538 0.70427,1.134124 0,0.344587 0.15845,0.626517 0.35212,0.626517 0.19368,0 0.35214,0.316918 0.35214,0.704262 0,0.387344 0.15845,0.704262 0.35212,0.704262 0.19367,0 0.35213,0.306242 0.35213,0.680528 0,0.374297 0.31692,0.781112 0.70426,0.904055 0.38735,0.122933 0.70426,0.529757 0.70426,0.904054 0,0.374286 0.15845,0.680528 0.35213,0.680528 0.19367,0 0.35213,0.316919 0.35213,0.704262 0,0.387334 0.15846,0.704253 0.35213,0.704253 0.19367,0 0.35213,0.305604 0.35213,0.67910296 0,0.37352 0.23769,0.916803 0.52819,1.207308 0.29051,0.290506 0.5282,0.77719804 0.5282,1.08153704 0,0.304339 0.15846,0.553353 0.35212,0.553353 0.19368,0 0.35214,0.2027 0.35214,0.450458 0,0.247748 0.31691,0.678875 0.70425,0.958056 0.38735,0.279181 0.70426,0.789537 0.70426,1.134124 0,0.344586 0.15846,0.626526 0.35213,0.626526 0.19368,0 0.35214,0.316909 0.35214,0.704253 0,0.387343 0.15845,0.704262 0.35212,0.704262 0.19367,0 0.35213,0.28194 0.35213,0.626526 0,0.344587 0.31692,0.854943 0.70426,1.134124 0.38734,0.279181 0.70426,0.789538 0.70426,1.134124 0,0.344587 0.15846,0.6265172 0.35213,0.6265172 0.19367,0 0.35212,0.224482 0.35212,0.498853 0,0.27437 0.17724,0.557924 0.39385,0.630132 0.21769,0.07261 0.4751,1.266907 0.57551,2.670312 l 0.18166,2.539043 -92.65736,0 -92.65738,0 0,-3.09143 z M 388.98876,-2.0658762 c 1.69462,-0.11852 3.08113,-0.358181 3.08113,-0.532586 0,-0.174395 0.7923,-0.317088 1.76065,-0.317088 0.96836,0 1.76064,-0.158459 1.76064,-0.352126 0,-0.193677 0.39615,-0.352136 0.88033,-0.352136 0.48418,0 0.88032,-0.142902 0.88032,-0.317556 0,-0.174654 0.95076,-0.4279 2.11278,-0.562764 1.16203,-0.134875 2.11278,-0.388111 2.11278,-0.562775 0,-0.174653 0.31692,-0.317556 0.70426,-0.317556 0.38734,0 0.70426,-0.158449 0.70426,-0.352126 0,-0.193667 0.23768,-0.352126 0.5282,-0.352126 0.2905,0 0.52819,-0.158459 0.52819,-0.352136 0,-0.193667 0.31691,-0.352126 0.70425,-0.352126 0.38735,0 0.70426,-0.158459 0.70426,-0.352126 0,-0.193677 0.31692,-0.352136 0.70427,-0.352136 0.38734,0 0.70425,-0.158449 0.70425,-0.352126 0,-0.193667 0.20781,-0.352126 0.4618,-0.352126 0.25398,0 0.80196,-0.316919 1.21773,-0.704263 0.41577,-0.387344 1.00024,-0.704262 1.29885,-0.704262 0.2986,0 0.54292,-0.151249 0.54292,-0.336121 0,-0.3178148 1.16166,-1.5338478 2.20179,-2.3048498 1.6152,-1.197269 2.00451,-1.232446 13.63925,-1.232446 l 11.62506,0 0,-77.996686 0,-77.996681 -10.57989,0 -10.57989,0 -0.86432,-0.86433 c -0.47537,-0.47536 -0.86432,-1.02214 -0.86432,-1.21505 0,-0.47323 -4.14879,-4.61109 -4.62326,-4.61109 -0.20687,0 -0.82019,-0.47537 -1.36295,-1.05638 -0.54274,-0.58101 -1.20516,-1.05639 -1.47205,-1.05639 -0.26688,0 -0.71367,-0.31692 -0.99285,-0.70426 -0.27918,-0.38734 -0.78954,-0.70426 -1.13412,-0.70426 -0.34459,0 -0.62653,-0.15846 -0.62653,-0.35213 0,-0.19367 -0.29996,-0.35213 -0.66658,-0.35213 -0.36662,0 -0.75111,-0.22027 -0.85442,-0.48948 -0.22657,-0.59043 -2.20588,-1.6233 -3.11078,-1.6233 -0.35758,0 -0.65016,-0.153 -0.65016,-0.34 0,-0.18699 -0.79229,-0.4451 -1.76064,-0.57355 -0.96836,-0.12846 -1.76065,-0.37161 -1.76065,-0.54033 0,-0.16871 -0.55461,-0.30677 -1.23246,-0.30677 -0.67785,0 -1.23245,-0.15846 -1.23245,-0.35212 0,-0.19367 -0.79229,-0.35213 -1.76064,-0.35213 -0.96836,0 -1.76065,-0.15846 -1.76065,-0.35213 0,-0.2224 -2.46491,-0.35213 -6.69046,-0.35213 -4.22555,0 -6.69047,0.12973 -6.69047,0.35213 0,0.19562 -0.93901,0.35213 -2.11277,0.35213 -1.17377,0 -2.11278,0.1565 -2.11278,0.35213 0,0.19366 -0.47538,0.35212 -1.05639,0.35212 -0.58101,0 -1.05639,0.13639 -1.05639,0.30309 0,0.16669 -0.83094,0.40149 -1.84653,0.52178 -1.0156,0.12027 -1.90033,0.38003 -1.96606,0.57723 -0.0657,0.19721 -0.40826,0.35855 -0.76115,0.35855 -0.81877,0 -3.52632,1.39525 -4.2708,2.20081 -0.31322,0.33892 -0.82821,0.61623 -1.14441,0.61623 -0.31622,0 -0.57493,0.15846 -0.57493,0.35213 0,0.19368 -0.25334,0.35213 -0.56298,0.35213 -0.30964,0 -1.00705,0.47537 -1.5498,1.05638 -0.54274,0.58102 -1.15579,1.05639 -1.36233,1.05639 -0.4998,0 -6.03238,5.50293 -6.03238,6.00005 0,0.21373 -0.22638,0.61496 -0.50305,0.89163 -0.41207,0.41208 -2.29052,0.50305 -10.38781,0.50305 l -9.88478,0 0,77.996681 0,77.996686 12.64957,0 12.64957,0 1.03939,0.968354 c 1.66981,1.555699 4.2197,3.6093248 4.48152,3.6093248 0.13269,0 0.89808,0.436226 1.70085,0.969381 0.80278,0.533154 2.25188,1.362928 3.22024,1.843923 0.96835,0.481005 1.84462,0.988095 1.94727,1.126854 0.10263,0.138769 0.85882,0.359785 1.68041,0.491164 0.82159,0.131378 1.57888,0.376517 1.68285,0.544747 0.10397,0.16823 0.56648,0.305873 1.0278,0.305873 0.46131,0 0.92587,0.14095 1.03234,0.313223 0.21946,0.355094 1.69665,0.642811 5.39534,1.050891 1.40485,0.154993 2.67082,0.398359 2.81328,0.540823 0.14247,0.142464 1.36992,0.170252 2.72768,0.06175 1.35777,-0.108501 3.85517,-0.29424 5.5498,-0.412751 z"
           id="path55519-1-2-2"
           inkscape:connector-curvature="0" />
      </g>
    </g>
  </g>
</svg>
